<svg width="24" height="24" viewBox="0 0 24 24" fill="none" xmlns="http://www.w3.org/2000/svg">
<path fill-rule="evenodd" clip-rule="evenodd" d="M12 22C17.5228 22 22 17.5228 22 12C22 6.47715 17.5228 2 12 2C6.47715 2 2 6.47715 2 12C2 17.5228 6.47715 22 12 22ZM11.9999 16.6154C14.5489 16.6154 16.6153 14.549 16.6153 12C16.6153 9.451 14.5489 7.38462 11.9999 7.38462C9.4509 7.38462 7.38452 9.451 7.38452 12C7.38452 14.549 9.4509 16.6154 11.9999 16.6154Z" fill="white"/>
<path fill-rule="evenodd" clip-rule="evenodd" d="M11.9999 15.077C13.6993 15.077 15.0769 13.6994 15.0769 12C15.0769 10.3007 13.6993 8.92313 11.9999 8.92313C10.3006 8.92313 8.923 10.3007 8.923 12C8.923 13.6994 10.3006 15.077 11.9999 15.077ZM11.9999 14.3078C13.2744 14.3078 14.3076 13.2746 14.3076 12.0001C14.3076 10.7256 13.2744 9.69237 11.9999 9.69237C10.7254 9.69237 9.69225 10.7256 9.69225 12.0001C9.69225 13.2746 10.7254 14.3078 11.9999 14.3078Z" fill="white"/>
</svg>
