<svg width="48" height="44" viewBox="0 0 48 44" fill="none" xmlns="http://www.w3.org/2000/svg">
<rect width="48" height="44" rx="4" fill="#1C1C1C"/>
<path d="M17.4961 36H18.4961V30H17.4961V28H18.4961V27H20.4961V36H21.4961V38H17.4961V36ZM22.5 29V27H29.5V31H28.5V33H27.5V35H26.5V38H24.5V34H25.5V32H26.5V30H27.5V29H22.5Z" fill="#DADADA"/>
<g clip-path="url(#clip0_391_2854)">
<path d="M16.5 19H18C18.4125 19 18.75 18.6625 18.75 18.25V11.5C18.75 11.0875 18.4125 10.75 18 10.75H16.5V19ZM31.3725 13.66C31.455 13.4725 31.5 13.27 31.5 13.06V12.25C31.5 11.425 30.825 10.75 30 10.75H25.875L26.565 7.2625C26.6025 7.0975 26.58 6.9175 26.505 6.7675C26.3325 6.43 26.115 6.1225 25.845 5.8525L25.5 5.5L20.6925 10.3075C20.4075 10.5925 20.25 10.975 20.25 11.3725V17.2525C20.25 18.2125 21.0375 19 22.005 19H28.0875C28.6125 19 29.1075 18.7225 29.3775 18.2725L31.3725 13.66V13.66Z" fill="#DADADA"/>
</g>
<defs>
<clipPath id="clip0_391_2854">
<rect width="18" height="18" fill="white" transform="translate(15 4)"/>
</clipPath>
</defs>
</svg>
