<svg width="48" height="44" viewBox="0 0 48 44" fill="none" xmlns="http://www.w3.org/2000/svg">
<rect width="48" height="44" rx="4" fill="#1C1C1C"/>
<path d="M20.498 37V35H22.498V36H25.498V33H22.498V31H25.498V29H22.498V30H20.498V28H21.498V27H26.498V28H27.498V32H26.498V33H27.498V37H26.498V38H21.498V37H20.498Z" fill="#1254FF"/>
<g clip-path="url(#clip0_391_2855)">
<path d="M31.5 7H30C29.5875 7 29.25 7.3375 29.25 7.75V14.5C29.25 14.9125 29.5875 15.25 30 15.25H31.5V7ZM16.6275 12.34C16.545 12.5275 16.5 12.73 16.5 12.94V13.75C16.5 14.575 17.175 15.25 18 15.25H22.125L21.435 18.7375C21.3975 18.9025 21.42 19.0825 21.495 19.2325C21.6675 19.57 21.885 19.8775 22.155 20.1475L22.5 20.5L27.3075 15.6925C27.5925 15.4075 27.75 15.025 27.75 14.6275V8.755C27.75 7.7875 26.9625 7 25.995 7L19.92 7C19.3875 7 18.9 7.2775 18.63 7.7275L16.6275 12.34V12.34Z" fill="#1254FF"/>
</g>
<defs>
<clipPath id="clip0_391_2855">
<rect width="18" height="18" fill="white" transform="translate(15 4)"/>
</clipPath>
</defs>
</svg>
