<svg width="48" height="44" viewBox="0 0 48 44" fill="none" xmlns="http://www.w3.org/2000/svg">
<rect width="48" height="44" rx="4" fill="#1C1C1C"/>
<g clip-path="url(#clip0_391_2858)">
<path d="M25.5 11.5H16.5V13H25.5V11.5ZM25.5 8.5H16.5V10H25.5V8.5ZM28.5 14.5V11.5H27V14.5H24V16H27V19H28.5V16H31.5V14.5H28.5ZM16.5 16H22.5V14.5H16.5V16Z" fill="#09A122"/>
</g>
<path d="M20.498 37V35H22.498V36H25.498V33H22.498V34H20.498V27H27.498V29H22.498V31H26.498V32H27.498V37H26.498V38H21.498V37H20.498Z" fill="#09A122"/>
<defs>
<clipPath id="clip0_391_2858">
<rect width="18" height="18" fill="white" transform="translate(15 4)"/>
</clipPath>
</defs>
</svg>
