<svg width="24" height="24" viewBox="0 0 24 24" fill="none" xmlns="http://www.w3.org/2000/svg">
<g clip-path="url(#clip0_413_2243)">
<path d="M17.6398 5.6531C16.1391 4.31645 14.1694 3.5 12 3.5C7.30305 3.5 3.51001 7.30467 3.51001 12C3.51001 16.6953 7.30305 20.5 12 20.5C15.9653 20.5 19.269 17.7886 20.2142 14.1249L20.3754 13.5H19.73H17.65H17.2959L17.1784 13.834C16.4266 15.9702 14.3913 17.5 12 17.5C8.96615 17.5 6.50001 15.0339 6.50001 12C6.50001 8.96614 8.96615 6.5 12 6.5C13.3381 6.5 14.5502 6.98992 15.4992 7.7937L12.6465 10.6464L11.7929 11.5H13H20H20.5V11V4V2.79289L19.6465 3.64645L17.6398 5.6531Z" fill="#FDFDFD" stroke="#969696"/>
</g>
<defs>
<clipPath id="clip0_413_2243">
<rect width="24" height="24" fill="white"/>
</clipPath>
</defs>
</svg>
