<svg width="24" height="24" viewBox="0 0 24 24" fill="none" xmlns="http://www.w3.org/2000/svg">
<path fill-rule="evenodd" clip-rule="evenodd" d="M9.59239 12.758C9.22149 13.1289 9.15577 13.7338 9.53524 14.1482C9.58538 14.203 9.63698 14.2569 9.69004 14.31C11.5126 16.1325 14.369 16.231 16.07 14.53L19.92 10.68C21.6211 8.97896 21.5226 6.12254 19.7 4.3C17.8775 2.47746 15.0211 2.37896 13.32 4.08L11.78 5.61999C11.3548 6.04525 11.3794 6.75936 11.835 7.21499C12.2907 7.67063 13.0048 7.69525 13.43 7.26999L14.97 5.73C15.8205 4.87948 17.2488 4.92873 18.16 5.84C19.0713 6.75127 19.1205 8.17948 18.27 9.03L14.42 12.88C13.5695 13.7305 12.1413 13.6813 11.23 12.77C10.7745 12.3145 10.0606 12.2898 9.63543 12.715L9.59239 12.758Z" fill="#707070"/>
<path fill-rule="evenodd" clip-rule="evenodd" d="M14.4076 11.242C14.7785 10.8711 14.8442 10.2662 14.4648 9.85178C14.4146 9.79702 14.363 9.74308 14.31 9.69002C12.4874 7.86748 9.631 7.76898 7.92996 9.47001L4.07997 13.32C2.37894 15.021 2.47744 17.8775 4.29998 19.7C6.12252 21.5225 8.97894 21.621 10.68 19.92L12.22 18.38C12.6452 17.9547 12.6206 17.2406 12.165 16.785V16.785C11.7093 16.3294 10.9952 16.3047 10.57 16.73L9.02997 18.27C8.17945 19.1205 6.75124 19.0713 5.83997 18.16C4.9287 17.2487 4.87945 15.8205 5.72997 14.97L9.57996 11.12C10.4305 10.2695 11.8587 10.3187 12.77 11.23V11.23C13.2255 11.6855 13.9394 11.7102 14.3646 11.285L14.4076 11.242Z" fill="#707070"/>
</svg>
