<svg width="24" height="24" viewBox="0 0 24 24" fill="none" xmlns="http://www.w3.org/2000/svg">
<g clip-path="url(#clip0_391_2880)">
<path d="M2.68082 20.0003C2.40872 20.7993 3.18776 21.5552 3.97817 21.2591L13.5812 17.6625C14.2528 17.411 14.4491 16.555 13.9541 16.036L7.78078 9.56207C7.26254 9.01861 6.35255 9.21895 6.11046 9.9298L2.68082 20.0003Z" fill="#545454"/>
<path d="M13.1188 12.238C13.3994 12.5323 13.8691 12.5323 14.1497 12.238L18.8246 7.33557C19.2796 6.85845 20.0131 6.85845 20.4681 7.33557L20.5004 7.36948C20.781 7.66379 21.2507 7.66379 21.5314 7.36948V7.36948C21.7938 7.09431 21.7938 6.66155 21.5314 6.38637L21.4523 6.30344C20.4588 5.26157 18.8339 5.26157 17.8404 6.30344L13.1188 11.2549C12.8564 11.5301 12.8564 11.9629 13.1188 12.238V12.238Z" fill="#545454"/>
<path d="M9.48361 7.27815L9.40452 7.36109C9.14212 7.63626 9.14212 8.06902 9.40452 8.3442V8.3442C9.68517 8.6385 10.1548 8.6385 10.4355 8.3442L10.4678 8.31029C11.4613 7.26842 11.4613 5.56442 10.4678 4.52255L10.4404 4.49375C10.1575 4.19709 9.68371 4.1982 9.40222 4.49618V4.49618C9.14077 4.77294 9.14179 5.20596 9.40453 5.48149L9.48361 5.56442C9.92929 6.0318 9.92929 6.81077 9.48361 7.27815Z" fill="#545454"/>
<path d="M15.9834 12.1457L14.9758 13.2023C14.7134 13.4775 14.7134 13.9102 14.9758 14.1854V14.1854C15.2565 14.4797 15.7261 14.4797 16.0068 14.1854L16.9676 13.1778C17.4226 12.7007 18.1561 12.7007 18.6111 13.1778L19.5905 14.2049C19.8711 14.4992 20.3408 14.4992 20.6215 14.2049V14.2049C20.8839 13.9297 20.8839 13.497 20.6215 13.2218L19.5953 12.1457C18.5925 11.1038 16.9769 11.1038 15.9834 12.1457Z" fill="#545454"/>
<path d="M14.1261 6.3038L11.2615 9.30788C10.9991 9.58305 10.9991 10.0158 11.2615 10.291V10.291C11.5421 10.5853 12.0118 10.5853 12.2924 10.291L15.1103 7.33594C16.1038 6.29407 16.1038 4.59007 15.1103 3.5482L14.1494 2.54058C13.8688 2.24627 13.3991 2.24627 13.1185 2.54058V2.54058C12.8561 2.81576 12.8561 3.24851 13.1185 3.52369L14.1261 4.58034C14.5718 5.05745 14.5718 5.83642 14.1261 6.3038Z" fill="#545454"/>
</g>
<defs>
<clipPath id="clip0_391_2880">
<rect width="24" height="24" fill="white"/>
</clipPath>
</defs>
</svg>
