<svg width="24" height="24" viewBox="0 0 24 24" fill="none" xmlns="http://www.w3.org/2000/svg">
<g clip-path="url(#clip0_391_2868)">
<path d="M19 11C18.4477 11 18 11.4477 18 12V12C18 12.5523 18.4477 13 19 13H21C21.5523 13 22 12.5523 22 12V12C22 11.4477 21.5523 11 21 11H19ZM16.6011 16.8072C16.2704 17.2516 16.3632 17.8787 16.8073 18.2099C17.326 18.5966 17.8786 19.0107 18.4032 19.4036C18.8437 19.7336 19.4676 19.6446 19.7972 19.2037V19.2037C20.129 18.7599 20.0392 18.1303 19.5958 17.7979C19.0715 17.4049 18.5194 16.9903 18.0014 16.6014C17.5596 16.2697 16.931 16.364 16.6011 16.8072V16.8072ZM19.603 6.20091C20.044 5.86963 20.1294 5.24063 19.7992 4.79887V4.79887C19.4695 4.358 18.8437 4.26635 18.4032 4.59652C17.8769 4.99107 17.3223 5.40748 16.8021 5.79802C16.3595 6.13031 16.2704 6.75915 16.6018 7.20242V7.20242C16.9318 7.6438 17.5567 7.73263 17.998 7.4026C18.5194 7.01276 19.0754 6.59731 19.603 6.20091ZM4 9C2.9 9 2 9.9 2 11V13C2 14.1 2.9 15 4 15H5V18.5C5 18.7761 5.22386 19 5.5 19H6.5C6.77614 19 7 18.7761 7 18.5V15H7.86151C7.95213 15 8.04105 15.0246 8.11876 15.0713L12.2428 17.5457C12.576 17.7456 13 17.5056 13 17.1169V6.88309C13 6.49445 12.576 6.25439 12.2428 6.45435L8.11876 8.92875C8.04105 8.97537 7.95213 9 7.86151 9H4ZM15.5 12C15.5 10.7503 14.9879 9.61529 14.1628 8.80253C14.1013 8.74193 14 8.78674 14 8.87309V15.1187C14 15.2048 14.1007 15.2497 14.1623 15.1896C14.9877 14.3851 15.5 13.25 15.5 12Z" fill="#B41024"/>
</g>
<defs>
<clipPath id="clip0_391_2868">
<rect width="24" height="24" fill="white"/>
</clipPath>
</defs>
</svg>
