<svg width="24" height="24" viewBox="0 0 24 24" fill="none" xmlns="http://www.w3.org/2000/svg">
<g clip-path="url(#clip0_391_2870)">
<path d="M14 11C14 10.4477 13.5523 10 13 10H3C2.44772 10 2 10.4477 2 11V11C2 11.5523 2.44772 12 3 12H13C13.5523 12 14 11.5523 14 11V11ZM14 7C14 6.44772 13.5523 6 13 6H3C2.44772 6 2 6.44772 2 7V7C2 7.55228 2.44772 8 3 8H13C13.5523 8 14 7.55228 14 7V7ZM18 14V11C18 10.4477 17.5523 10 17 10V10C16.4477 10 16 10.4477 16 11V14H13C12.4477 14 12 14.4477 12 15V15C12 15.5523 12.4477 16 13 16H16V19C16 19.5523 16.4477 20 17 20V20C17.5523 20 18 19.5523 18 19V16H21C21.5523 16 22 15.5523 22 15V15C22 14.4477 21.5523 14 21 14H18ZM2 15C2 15.5523 2.44772 16 3 16H9C9.55228 16 10 15.5523 10 15V15C10 14.4477 9.55228 14 9 14H3C2.44772 14 2 14.4477 2 15V15Z" fill="#FDFDFD"/>
</g>
<defs>
<clipPath id="clip0_391_2870">
<rect width="24" height="24" fill="white"/>
</clipPath>
</defs>
</svg>
