<svg xmlns="http://www.w3.org/2000/svg" viewBox="0 0 513 342"><path fill="#012169" d="M0 0h513v342H0z"/><path fill="#FFF" d="M440.1 181.1c-.1 39.2-6.4 81.4-57.4 101.5-51.1-20.1-57.3-62.3-57.4-101.5h114.8z"/><path fill="#1B81B6" d="M439.6 197.7c-2.8 34.9-12.4 67.4-57 85-44.4-17.6-54.5-51.2-56.9-84.9"/><path fill="#FFF" d="M437.8 214.1c-3.2 24.3-16.7 53.5-55.1 68.6-38.4-15.1-50.5-42.5-55.1-68.4"/><path fill="#1B81B6" d="M434.2 230.3c-5.7 17.7-19.3 39.4-51.3 52.8-32-12.6-45.2-33.8-51.4-53"/><path fill="#FFF" d="M426.7 246.9c-6.5 11.3-17.7 25.4-44 35.9-27.5-11.5-37.4-25.3-44-36.1"/><path fill="#1B81B6" d="M412.4 265.1c-8.1 7.2-12 11.2-29.6 17.9-20.1-7.9-22.6-11.6-29.2-17.5"/><path fill="#288549" d="M383.3 231.6c-.2-.2-27.9 35.7-27.9 35.7-1.8-1.3-10-9.5-13.3-15l41.3-50.1 40.2 49.7c-3.9 6.5-11.4 13.6-13.2 15M382.6 85.3l-26.5 45h53z"/><g fill="#F0955D"><path d="M275.9 223.6c3.6-26.7 13.5-47.3 22.1-46.2s12.6 23.7 9 50.4-13.5 47.3-22.1 46.2c-8.6-1.2-12.6-23.7-9-50.4zM467.1 177.7c8.6-1.2 18.5 19.5 22.1 46.2s-.4 49.2-9 50.4-18.5-19.6-22.2-46.3c-3.6-26.6.5-49.2 9.1-50.3z"/></g><g fill="#EADFD5"><path d="M296.4 162c2.4-6 7.4-9.7 11-8.2 3.7 1.5 4.7 7.5 2.3 13.5s-7.4 9.7-11 8.2c-3.6-1.5-4.7-7.5-2.3-13.5zM288.4 271.2c.9-6.2 3.1-11.1 4.9-10.8s2.5 5.5 1.6 11.8c-.9 6.2-3.1 11.1-4.9 10.8s-2.5-5.5-1.6-11.8zM299 258.4c1.8-.1 3.6 4.7 3.9 10.8s-.9 11.1-2.7 11.2c-1.8.1-3.6-4.7-3.9-10.8-.3-6.1.9-11.1 2.7-11.2zM309.5 188.4c2.1-.8 6.1 4.2 8.8 11.2 2.8 7 3.3 13.4 1.2 14.2-2.1.8-6.1-4.2-8.8-11.2-2.8-7-3.3-13.4-1.2-14.2zM316 174.3c7-2.8 13.4-3.3 14.2-1.2.8 2.1-4.2 6.1-11.2 8.8-7 2.8-13.4 3.3-14.2 1.2-.9-2.1 4.2-6 11.2-8.8zM457.6 154.1c3.7-1.5 8.6 2.2 11 8.2 2.4 6 1.4 12.1-2.3 13.5-3.7 1.5-8.6-2.2-11-8.2-2.4-6-1.3-12.1 2.3-13.5zM471.8 260.6c1.8-.3 4 4.6 4.9 10.8.9 6.2.2 11.5-1.6 11.8-1.8.3-4-4.6-4.9-10.8-1-6.3-.2-11.5 1.6-11.8zM462.2 269.4c.3-6.1 2.1-10.9 3.9-10.8 1.8.1 3 5.1 2.7 11.2-.3 6.1-2.1 10.9-3.9 10.8-1.8-.1-3-5.1-2.7-11.2zM446.7 199.7c2.8-7 6.7-12.1 8.8-11.2 2.1.8 1.6 7.2-1.2 14.2-2.8 7-6.7 12.1-8.8 11.2s-1.6-7.2 1.2-14.2zM434.9 173.2c.8-2.1 7.2-1.6 14.2 1.2 7 2.8 12.1 6.7 11.2 8.8-.8 2.1-7.2 1.6-14.2-1.2-7-2.7-12.1-6.7-11.2-8.8z"/></g><path fill="#B0C6CC" d="M373.3 130.3 356.1 155l17.8 26.1H396l4.7-25.4-5.4-25.4z"/><path fill="#012169" d="M0 0h256.5v171H0z"/><g fill="#FFF"><path d="M256.5 0v30.6l-45.3 25.2h45.3v59.4h-59.2l59.2 32.9V171h-26.7l-73.7-40.9V171h-55.7v-48.7L12.8 171H0v-30.6l45.3-25.2H0V55.8h59.2L0 22.9V0h26.7l73.7 40.9V0h55.7v48.7L243.7 0z"/><path d="M156.1 115.2 256.5 171v-15.8l-72-40zM100.4 55.8 0 0v15.8l72 40z"/></g><g fill="#D80027"><path d="M144.3 0h-32.1v69.5H0v32h112.2V171h32.1v-69.5h112.2v-32H144.3z"/><path d="M156.1 115.2 256.5 171v-15.8l-72-40zM72 115.2l-72 40V171l100.4-55.8zM100.4 55.8 0 0v15.8l72 40zM184.5 55.8l72-40V0L156.1 55.8z"/></g></svg>