<svg xmlns="http://www.w3.org/2000/svg" viewBox="0 0 513 342"><path fill="#00008b" d="M0 0h513v342H0z"/><g fill="#FFF"><path d="m188 212.6 11 22.9 24.7-5.7-11 22.8 19.9 15.8-24.8 5.6.1 25.4-19.9-15.9-19.8 15.9.1-25.4-24.8-5.6 19.9-15.8-11.1-22.8 24.8 5.7zM385.9 241.1l5.2 10.9 11.8-2.7-5.3 10.9 9.5 7.5-11.8 2.6v12.2l-9.4-7.6-9.5 7.6.1-12.2-11.8-2.6 9.5-7.5-5.3-10.9 11.8 2.7zM337.3 125.1l5.2 10.9 11.8-2.7-5.3 10.9 9.5 7.5-11.8 2.7v12.1l-9.4-7.6-9.5 7.6.1-12.1-11.9-2.7 9.5-7.5-5.3-10.9L332 136zM385.9 58.9l5.2 10.9 11.8-2.7-5.3 10.9 9.5 7.5-11.8 2.7v12.1l-9.4-7.6-9.5 7.6.1-12.1-11.8-2.7 9.5-7.5-5.3-10.9 11.8 2.7zM428.4 108.6l5.2 10.9 11.8-2.7-5.3 10.9 9.5 7.5-11.8 2.6V150l-9.4-7.6-9.5 7.6v-12.2l-11.8-2.6 9.5-7.5-5.3-10.9 11.8 2.7zM398 166.5l4.1 12.7h13.3l-10.8 7.8 4.2 12.7-10.8-7.9-10.8 7.9 4.1-12.7-10.7-7.8h13.3z"/></g><path fill="#00008b" d="M0 0h256.5v171H0z"/><g fill="#FFF"><path d="M256.5 0v30.6l-45.3 25.2h45.3v59.4h-59.2l59.2 32.9V171h-26.7l-73.7-40.9V171h-55.7v-48.7L12.8 171H0v-30.6l45.3-25.2H0V55.8h59.2L0 22.9V0h26.7l73.7 40.9V0h55.7v48.7L243.7 0z"/><path d="M156.1 115.2 256.5 171v-15.8l-72-40zM100.4 55.8 0 0v15.8l72 40z"/></g><g fill="red"><path d="M144.3 0h-32.1v69.5H0v32h112.2V171h32.1v-69.5h112.2v-32H144.3z"/><path d="M156.1 115.2 256.5 171v-15.8l-72-40zM72 115.2l-72 40V171l100.4-55.8zM100.4 55.8 0 0v15.8l72 40zM184.5 55.8l72-40V0L156.1 55.8z"/></g></svg>