<svg xmlns="http://www.w3.org/2000/svg" viewBox="0 0 513 342"><path fill="#FFF" d="M0 0h513v342H0z"/><g fill="#E6BC00"><path d="M157.3 199.8s-9 43.9-19.3 40.4c-10.6-3.5-17.5-18.8-17.5-18.8L106 242.6s38.2 8.5 41 5.5c1.2-1.1 8.2-15.1 10.3-26.1v-22.2zm-56.1 60.5s-2.5 20.2-1.1 22.7c1.2 2.3 39.5 11.3 39.5 11.3s-25 16.5-29.7 20.5l-18.1-29.9-.7-24.6h10.1zM112.5 94.6s39.7 41.6 40.4 45.5c.7 3.7-4.2 3.2-4.2 3.2s-44.8-37.5-49.9-41.1c-5.4-3.5 13.7-7.6 13.7-7.6zM359.2 201.3s9 42.4 19.2 38.9c10.6-3.5 17.5-18.8 17.5-18.8l14.5 21.2s-37 8.5-39.8 5.5c-1.2-1.1-9.3-13.8-11.5-24.7l.1-22.1zm56 59s2.5 20.2 1.1 22.7c-1.2 2.3-39.5 11.3-39.5 11.3s25 16.5 29.7 20.5l18.1-29.9.7-24.6h-10.1zM403.9 94.6s-39.6 41.6-40.4 45.5c-.7 3.7 4.2 3.2 4.2 3.2s44.8-37.5 49.9-41.1c5.2-3.5-13.7-7.6-13.7-7.6z"/></g><g fill="#ADADAD"><path d="M99.4 104.7s17-.7 16.6-11.5c-.4-10.6-11.2-14.9-19.1-12.4-8 2.3-23 13.4-13.6 35.1 9.4 21.4 23.4 29.4 26.2 47.8 0 0-5.5 9.9-19.1.4-16.9-11.8-6.2-38.2-10.4-45-4.2-7.1-41-38.9-41-38.9s-30.2 39.4-18 74.9c17 49.2 51.7 32 64.6 36.8 0 0-42.1 62-49.6 67.1 0 0 24.1 8.3 47.8-18.8 0 0 5.8 9.7 7.1 20.2h10.3c4.8-26.2 51.5-64.3 49.9-82.3-1.8-21.3-49.2-49.5-51.7-73.4zM365.1 178c-1.6 18.1 45.1 56.1 49.9 82.3h10.3c1.2-10.4 7.1-20.2 7.1-20.2 23.7 27.1 47.8 18.8 47.8 18.8-7.4-5.1-49.6-67.1-49.6-67.1 12.9-4.8 47.7 12.4 64.6-36.8 12.2-35.6-18-74.9-18-74.9s-36.7 31.8-41 38.9c-4.2 6.7 6.5 33.2-10.4 45-13.7 9.5-19.1-.4-19.1-.4 2.8-18.4 16.8-26.4 26.2-47.8 9.4-21.6-5.7-32.8-13.6-35.1-8-2.5-18.8 1.8-19.1 12.4-.4 10.8 16.6 11.5 16.6 11.5-2.5 24-49.9 52.2-51.7 73.4z"/></g><path fill="#125ECC" d="M157.3 87.1h201.8v145.5c0 16.1-9.7 21.4-21.9 31.8l-45.9 39.4c-18.2 15.6-47.9 15.6-66.1 0l-46-39.4c-12.1-10.4-21.9-15.7-21.9-31.8V87.1z"/><path fill="#FFE600" d="M200.6 147.7c-8 0-14.4-6.4-14.4-14.4s6.4-14.4 14.4-14.4 14.4 6.4 14.4 14.4-6.5 14.4-14.4 14.4zm57.6-3c-8 0-14.4-6.4-14.4-14.4s6.4-14.4 14.4-14.4 14.4 6.4 14.4 14.4-6.4 14.4-14.4 14.4zm57.7 3c-8 0-14.4-6.4-14.4-14.4s6.5-14.4 14.4-14.4 14.4 6.4 14.4 14.4-6.5 14.4-14.4 14.4zM215 274.4c-8 0-14.4-6.5-14.4-14.4 0-8 6.4-14.4 14.4-14.4s14.4 6.4 14.4 14.4-6.5 14.4-14.4 14.4zm43.2 14.5c-8 0-14.4-6.5-14.4-14.4s6.4-14.4 14.4-14.4 14.4 6.5 14.4 14.4-6.4 14.4-14.4 14.4zm43.2-14.5c-8 0-14.4-6.5-14.4-14.4 0-8 6.5-14.4 14.4-14.4s14.4 6.4 14.4 14.4c.1 8-6.4 14.4-14.4 14.4z"/><path fill="#D60537" d="M157.3 175.4h201.8V233H157.3v-57.6z"/><path fill="#EACE00" d="M142.9 43.8s57.6-14.4 115.3-14.4 115.3 14.4 115.3 14.4l-14.4 57.7s-50.5-14.4-100.9-14.4-100.9 14.4-100.9 14.4l-14.4-57.7z"/><path fill="#7A6920" d="M258.2 72.7c-8 0-14.4-6.4-14.4-14.4s6.4-14.4 14.4-14.4 14.4 6.5 14.4 14.4-6.4 14.4-14.4 14.4zm57.7 5c-8 0-14.4-6.4-14.4-14.4s6.5-14.4 14.4-14.4 14.4 6.5 14.4 14.4-6.5 14.4-14.4 14.4zm-115.3 0c-8 0-14.4-6.4-14.4-14.4s6.4-14.4 14.4-14.4S215 55.3 215 63.2s-6.5 14.5-14.4 14.5z"/><circle fill="#FFF" cx="258.2" cy="204.2" r="16.9"/></svg>