<svg xmlns="http://www.w3.org/2000/svg" viewBox="0 0 513 342"><path fill="#012169" d="M0 0h513v342H0z"/><g fill="#FFF"><path d="m384 71.4 5.3 16.2h17.1l-13.9 10.1 5.3 16.2-13.8-10-13.8 10 5.3-16.2-13.9-10.1h17.1zM313.8 100.5l15.2 7.7 12.1-12.1-2.7 16.9 15.3 7.8-16.9 2.6-2.7 16.9-7.8-15.2-16.8 2.7 12.1-12.1zM284.7 170.7l16.3-5.3v-17.1l10 13.8 16.3-5.3-10.1 13.9 10.1 13.8-16.3-5.3-10 13.8v-17.1zM313.8 240.9l7.7-15.3-12-12 16.8 2.6 7.8-15.2 2.7 16.9 16.9 2.7-15.3 7.7 2.7 16.9-12.1-12.1zM384 270l-5.3-16.3h-17.1l13.9-10-5.3-16.3 13.8 10 13.8-10-5.3 16.3 13.9 10h-17.1zM454.2 240.9l-15.2-7.8-12.1 12.1 2.7-16.9-15.3-7.7 16.9-2.7 2.7-16.9 7.8 15.2 16.8-2.6-12.1 12zM483.3 170.7l-16.3 5.2V193l-10-13.8-16.3 5.3 10.1-13.8-10.1-13.9 16.3 5.3 10-13.8v17.1zM454.2 100.5l-7.7 15.2 12 12.1-16.8-2.7-7.8 15.2-2.7-16.9-16.9-2.6 15.3-7.8-2.7-16.9 12.1 12.1z"/></g><path fill="#012169" d="M0 0h256.5v171H0z"/><g fill="#FFF"><path d="M256.5 0v30.6l-45.3 25.2h45.3v59.4h-59.2l59.2 32.9V171h-26.7l-73.7-40.9V171h-55.7v-48.7L12.8 171H0v-30.6l45.3-25.2H0V55.8h59.2L0 22.9V0h26.7l73.7 40.9V0h55.7v48.7L243.7 0z"/><path d="M156.1 115.2 256.5 171v-15.8l-72-40zM100.4 55.8 0 0v15.8l72 40z"/></g><g fill="#D80027"><path d="M144.3 0h-32.1v69.5H0v32h112.2V171h32.1v-69.5h112.2v-32H144.3z"/><path d="M156.1 115.2 256.5 171v-15.8l-72-40zM72 115.2l-72 40V171l100.4-55.8zM100.4 55.8 0 0v15.8l72 40zM184.5 55.8l72-40V0L156.1 55.8z"/></g></svg>