<svg xmlns="http://www.w3.org/2000/svg" viewBox="0 0 513 342"><path fill="#012169" d="M0 0h513v342H0z"/><path fill="#012169" d="M0 0h256.5v171H0z"/><g fill="#FFF"><path d="M256.5 0v30.6l-45.3 25.2h45.3v59.4h-59.2l59.2 32.9V171h-26.7l-73.7-40.9V171h-55.7v-48.7L12.8 171H0v-30.6l45.3-25.2H0V55.8h59.2L0 22.9V0h26.7l73.7 40.9V0h55.7v48.7L243.7 0z"/><path d="M156.1 115.2 256.5 171v-15.8l-72-40zM100.4 55.8 0 0v15.8l72 40z"/></g><g fill="#D80027"><path d="M144.3 0h-32.1v69.5H0v32h112.2V171h32.1v-69.5h112.2v-32H144.3z"/><path d="M156.1 115.2 256.5 171v-15.8l-72-40zM72 115.2l-72 40V171l100.4-55.8zM100.4 55.8 0 0v15.8l72 40zM184.5 55.8l72-40V0L156.1 55.8z"/></g><path fill="#2a7fff" d="M311.2 190.2v-90c0-8.5 6.5-15.3 15-15.3h120.5c8.3 0 15 6.8 15 15.3v90c0 75.2-75.2 105.3-75.2 105.3s-75.3-30.1-75.3-105.3z"/><path fill="#FFF" d="M311.2 190.2v-90c0-8.5 6.5-15.3 15-15.3h120.5c8.3 0 15 6.8 15 15.3v90c0 75.2-75.2 105.3-75.2 105.3s-75.3-30.1-75.3-105.3zm79.6 86.3c7.9-4.5 15.9-10 23.2-16.7 20.5-18.5 32.6-41.4 32.6-69.7v-90c0-.3-120.4-.3-120.4-.3v90.3c0 28.3 12.1 51.2 32.6 69.7 8.3 7.5 17.6 13.9 27.6 19 1.4-.6 2.8-1.4 4.4-2.3z"/><path fill="#3e6d1e" d="M346.1 189.4c-2.6-7.9 1.7-14.3 10.1-14.3h60.5c8.2 0 12.8 6.3 10.1 14.3l-5.5 16.5c-2.6 7.9-8.9 9.2-15.8 4 0 0 2.6-4.8-19.1-4.8s-19.1 4.8-19.1 4.8c-6.1 5.7-13.1 4-15.8-4 .1.1-5.4-16.5-5.4-16.5z"/><path fill="#e5e5e5" d="M356.4 175.1c8.1 1.6 17.8-15 30.1-15 13.1 0 21.8 17.1 30.1 15 7.4-1.8 15-22.2 15-30.1 0-16.6-20.2-30.1-45.1-30.1s-45.1 13.5-45.1 30.1c-.1 8.5 6.6 28.5 15 30.1z"/><path fill="#FFF" d="M355 266.7c6.2.4 12.5-1.8 17.2-6.5l9-9c2.9-2.9 7.5-2.9 10.4 0l9 9c4.7 4.7 11 6.9 17.1 6.5 5.3-.3 32.5-33.5 25.7-32.6-4.6.6-9.1 2.8-12.7 6.3l-.1.1-9 9c-2.9 2.9-7.5 2.9-10.4 0l-9-9c-8.7-8.8-22.9-8.8-31.7-.1l-.1.1-9 9c-2.9 2.9-7.5 2.9-10.4 0l-9-9c-3.5-3.5-7.8-5.6-12.3-6.3-6.7-1.1 20.1 32.2 25.3 32.5zM321.1 206c2.9-2.9 7.5-2.9 10.4 0l9 9c8.8 8.7 22.9 8.7 31.7 0l9-9c2.9-2.9 7.5-2.9 10.4 0l9 9c8.8 8.7 22.9 8.7 31.7 0l9-9c2.9-2.9 7.5-2.9 10.4 0 0 0 5.5-14.8 2.5-15.9-7.9-2.9-17.2-1.2-23.5 5.2l-.1.1-9 9c-2.9 2.9-7.5 2.9-10.4 0l-9-9c-8.7-8.8-22.9-8.8-31.7-.1l-.1.1-9 9c-2.9 2.9-7.5 2.9-10.4 0l-9-9c-6.2-6.2-15.1-8-22.8-5.5-3.1 1.1 1.9 16.1 1.9 16.1z"/></svg>