<svg xmlns="http://www.w3.org/2000/svg" viewBox="0 0 513 342"><path fill="#012169" d="M0 0h513v342H0z"/><path fill="#012169" d="M0 0h256.5v171H0z"/><g fill="#FFF"><path d="M256.5 0v30.6l-45.3 25.2h45.3v59.4h-59.2l59.2 32.9V171h-26.7l-73.7-40.9V171h-55.7v-48.7L12.8 171H0v-30.6l45.3-25.2H0V55.8h59.2L0 22.9V0h26.7l73.7 40.9V0h55.7v48.7L243.7 0z"/><path d="M156.1 115.2 256.5 171v-15.8l-72-40zM100.4 55.8 0 0v15.8l72 40z"/></g><g fill="#D80027"><path d="M144.3 0h-32.1v69.5H0v32h112.2V171h32.1v-69.5h112.2v-32H144.3z"/><path d="M156.1 115.2 256.5 171v-15.8l-72-40zM72 115.2l-72 40V171l100.4-55.8zM100.4 55.8 0 0v15.8l72 40zM184.5 55.8l72-40V0L156.1 55.8z"/></g><ellipse fill="#FFF" cx="443.4" cy="233.6" rx="29" ry="43.5"/><ellipse fill="#FFCE00" cx="406.9" cy="317.7" rx="22" ry="9.3"/><ellipse fill="#FFCE00" cx="364" cy="317.7" rx="22" ry="9.3"/><path fill="#39B200" d="m342 190.1 43.4 86.9 43.5-86.9z"/><ellipse fill="#9B9B9B" cx="327.5" cy="233.6" rx="29" ry="43.5"/><path fill="#757575" d="m371 175.6-14.5 14.5h57.9l-14.5-14.5 14.5-43.5s-13-29-29-29-29 29-29 29l14.6 43.5z"/><circle fill="#C6B56F" cx="385.4" cy="67" r="29"/><circle fill="#923f00" cx="386" cy="88.7" r="29"/><circle fill="#FFF" cx="443.4" cy="117.7" r="29"/><circle fill="#0049FF" cx="342.2" cy="146.7" r="29"/><circle fill="#0041F9" cx="429.8" cy="146.7" r="29"/><circle fill="#F7D71E" cx="386" cy="233.6" r="29"/><circle fill="#CEC851" cx="457.9" cy="190.1" r="29"/><circle fill="#FFF" cx="385.4" cy="289.5" r="29"/><path fill="#7C0B29" d="m371 135.7 14.5-3.5 14.5 3.5c0 7.5-14.5 11-14.5 11s-14.5-3.5-14.5-11z"/><circle fill="#FFF" cx="327.5" cy="117.4" r="29"/></svg>