<svg xmlns="http://www.w3.org/2000/svg" viewBox="0 0 513 342"><path fill="#012169" d="M0 0h513v342H0z"/><g stroke="#fff"><circle fill="#059334" cx="384" cy="96.5" r="29.7"/><path fill="#c8102e" d="M332.1 89H436v44.5H332.1z"/><path fill="#fcea83" d="M332.1 200.3V230h15.6c9.4 9.2 22.2 14.8 36.3 14.8 14.1 0 27-5.7 36.3-14.8H435.9v-29.7H332.1z"/><path fill="#004b9e" d="M332.1 126.1v44.5c0 39.8 51.9 51.9 51.9 51.9s51.9-12.2 51.9-51.9v-44.5H332.1z"/><g fill="#F3F3F3"><path d="M384 149.9c-13 0-13 11.9-26 11.9s-13-11.9-26-11.9v20.8c13 0 13 11.9 26 11.9s13-11.9 26-11.9 13 11.9 26 11.9 13-11.9 26-11.9v-20.8c-13 0-13 11.9-26 11.9s-13-11.9-26-11.9zM384 108.3c-13 0-13 11.9-26 11.9s-13-11.9-26-11.9v20.8c13 0 13 11.9 26 11.9s13-11.9 26-11.9 13 11.9 26 11.9 13-11.9 26-11.9v-20.8c-13 0-13 11.9-26 11.9s-13-11.9-26-11.9z"/></g></g><path fill="#012169" d="M0 0h256.5v171H0z"/><g fill="#FFF"><path d="M256.5 0v30.6l-45.3 25.2h45.3v59.4h-59.2l59.2 32.9V171h-26.7l-73.7-40.9V171h-55.7v-48.7L12.8 171H0v-30.6l45.3-25.2H0V55.8h59.2L0 22.9V0h26.7l73.7 40.9V0h55.7v48.7L243.7 0z"/><path d="M156.1 115.2 256.5 171v-15.8l-72-40zM100.4 55.8 0 0v15.8l72 40z"/></g><g fill="#D80027"><path d="M144.3 0h-32.1v69.5H0v32h112.2V171h32.1v-69.5h112.2v-32H144.3z"/><path d="M156.1 115.2 256.5 171v-15.8l-72-40zM72 115.2l-72 40V171l100.4-55.8zM100.4 55.8 0 0v15.8l72 40zM184.5 55.8l72-40V0L156.1 55.8z"/></g></svg>