<svg xmlns="http://www.w3.org/2000/svg" viewBox="0 0 513 342"><path fill="#fedd00" d="M0 0h513v342H0z"/><path fill="#012169" d="M0 0h256.5v171H0z"/><g fill="#FFF"><path d="M256.5 0v30.6l-45.3 25.2h45.3v59.4h-59.2l59.2 32.9V171h-26.7l-73.7-40.9V171h-55.7v-48.7L12.8 171H0v-30.6l45.3-25.2H0V55.8h59.2L0 22.9V0h26.7l73.7 40.9V0h55.7v48.7L243.7 0z"/><path d="M156.1 115.2 256.5 171v-15.8l-72-40zM100.4 55.8 0 0v15.8l72 40z"/></g><g fill="#D80027"><path d="M144.3 0h-32.1v69.5H0v32h112.2V171h32.1v-69.5h112.2v-32H144.3z"/><path d="M156.1 115.2 256.5 171v-15.8l-72-40zM72 115.2l-72 40V171l100.4-55.8zM100.4 55.8 0 0v15.8l72 40zM184.5 55.8l72-40V0L156.1 55.8z"/></g><circle fill="#012169" cx="126.8" cy="85.7" r="29.9"/><g fill="#fedd00"><path d="m128.3 128.6 3.5 10.9h11.5l-9.3 6.7 3.5 10.9-9.2-6.7-9.3 6.7 3.5-10.9-9.2-6.7h11.4zM128.2 13.2l3.6 10.9h11.4l-9.2 6.7 3.5 10.9-9.3-6.7-9.2 6.7 3.5-10.9-9.3-6.7h11.5zM204.6 71.3l3.5 10.9h11.5l-9.3 6.7 3.5 10.9-9.2-6.7-9.3 6.7 3.5-10.9-9.2-6.7H201zM52.8 71.4l3.6 10.9h11.4l-9.3 6.8 3.6 10.8-9.3-6.7-9.3 6.7 3.6-10.8-9.3-6.8h11.5zM126.8 55.8l6.7 20.7h21.8l-17.7 12.8 6.8 20.6-17.6-12.7-17.7 12.7 6.8-20.6-17.6-12.8H120z"/></g></svg>