<svg xmlns="http://www.w3.org/2000/svg" viewBox="0 0 513 342"><path d="M0 0h513v342H0z"/><path fill="#C8102E" d="M0 0h513v342"/><g fill="#FFF"><path d="m153.7 225 2.7 8.5h9l-7.2 5.2 2.7 8.6-7.2-5.3-7.3 5.3 2.8-8.6-7.3-5.2h9zM128.4 105l5.2 16h16.8l-13.6 9.9 5.2 16-13.6-9.9-13.6 9.9 5.2-16-13.6-9.9h16.8zM128.4 265.3l5.2 16h16.8l-13.6 9.9 5.2 16-13.6-9.9-13.6 9.9 5.2-16-13.6-9.9h16.8zM179.1 169.2l5.2 16h16.8l-13.6 9.9 5.2 16-13.6-9.9-13.6 9.9 5.2-16-13.6-9.9h16.8zM71.8 173.3l5.2 16h16.8l-13.6 9.9 5.2 15.9-13.6-9.8-13.6 9.8 5.2-15.9-13.6-9.9h16.8z"/></g><g fill="#FFCD00"><path d="M288 79.9s33 13.8 30 19.7c-2.9 5.9-17.4-7.1-30-3.5-12.7 3.5-28.6 32.4-28.6 32.4s18.6 2.7 34.2 1.5c15.6-1.2 19.7-7.4 19.7-7.4s.7 15.3 12.7 24.3c18.2 13.6 56.2 22.3 56.2 22.3s.6-6.5-2.7-20.7-8-21.4-8-21.4 55.7 38.3 51.2 59.3-30.1 19.6-30.1 19.6 28.4 12.5 37.4-13.5c12.4-35.6-42.4-65.2-42.4-65.2s6.5 3.1 17.1 4.6 20.3-.3 20.3-.3-13.8-43.6-29.2-52.1c-15.3-8.5-37.1-.9-37.1-.9s9.1-5.9 10-15.9c.9-10-3.5-24.1-3.5-24.1-50.1 21.2-21.2 41.2-33 49.2-2 1.4-9.5-9.9-18.8-8.2-11.5 1.8-25.4.3-25.4.3z"/><path d="M404.7 131.8s15.3 17.7 8.2 35.9c-7.1 18.3-37.7 13.5-37.7 13.5s24.7 13.9 40.6-5.3-2.4-43.6-2.4-43.6l-8.7-.5z"/></g></svg>