<svg xmlns="http://www.w3.org/2000/svg" viewBox="0 0 513 342"><path fill="#FFF" d="M0 0h513v342H0z"/><path fill="#0038A8" d="M513 0v171H256.5L0 0z"/><path fill="#CE1126" d="M513 171v171H0l256.5-171z"/><g fill="#FCD116"><path d="m22.1 33.8 8.5 11.9 13.8-4.5-8.6 11.7 8.5 11.8-13.8-4.6-8.6 11.7V57.2L8.2 52.7 22 48.4zM22.1 270.2l8.5 11.8 13.8-4.4-8.6 11.7 8.5 11.8-13.8-4.6-8.6 11.7v-14.6l-13.7-4.5 13.8-4.3zM210.5 152l-8.5 11.8-13.8-4.4 8.6 11.7-8.4 11.8 13.7-4.6 8.6 11.7v-14.6l13.7-4.5-13.8-4.3z"/><circle cx="95" cy="171" r="32"/><path d="m95 171 11.2 56.5-3.4 3.4-3.7 3.5-4.2 4.2-4.2-4.2-3.7-3.5-3.4-3.4L95 171zM95 171l-11.2-56.5 3.4-3.4 3.7-3.5 4.2-4.2 4.2 4.2 3.7 3.5 3.4 3.4L95 171zM95 171l56.5-11.2 3.4 3.4 3.5 3.7 4.2 4.2-4.2 4.2-3.5 3.7-3.4 3.4L95 171zM95 171l-56.5 11.2-3.4-3.4-3.5-3.7-4.2-4.2 4.2-4.2 3.5-3.7 3.4-3.4L95 171zM95 171l32-47.9h4.8l5.1.2h5.9v5.9l.2 5.1v4.8L95 171zM95 171l-32 47.9h-4.8l-5.1-.2h-5.9v-5.9l-.2-5.1v-4.8L95 171zM95 171l47.9 32v4.8l-.2 5.1v5.9h-5.9l-5.1.2h-4.8L95 171zM95 171l-47.9-32v-4.8l.2-5.1v-5.9h5.9l5.1-.2h4.8L95 171z"/></g></svg>