<svg xmlns="http://www.w3.org/2000/svg" viewBox="0 0 513 342"><path fill="#012169" d="M0 0h513v342H0z"/><path fill="#5f7dbd" d="M449 139.7c-.1 44.4-7.2 92.1-65 114.9-57.8-22.8-64.9-70.5-65-114.9h130z"/><path fill="#f2d049" d="M449 139.7c0-16.7-.9-32.9-.5-47.1C426.9 83 398.4 81 383.9 81s-42.9 2-64.6 11.6c.4 14.2-.5 30.4-.5 47.1H449z"/><path fill="#b38c79" d="m369.5 204.5.3 10.3-12.8.2 4.9 13.2h-17.3c-18-20.2-23.4-42.4-24.9-68.1l9.1-9.7 8.3 14.3 10.8-12.8 7 7.8.8 15.7 13.8 29.1z"/><path fill="#5c5568" d="m436.6 192.5-8.6 18.3h-47l-29.2-19.5 25.7 10.5h25.1l3.7-6.5 7.2.2 2-3z"/><path fill="#012169" d="M0 0h256.5v171H0z"/><g fill="#FFF"><path d="M256.5 0v30.6l-45.3 25.2h45.3v59.4h-59.2l59.2 32.9V171h-26.7l-73.7-40.9V171h-55.7v-48.7L12.8 171H0v-30.6l45.3-25.2H0V55.8h59.2L0 22.9V0h26.7l73.7 40.9V0h55.7v48.7L243.7 0z"/><path d="M156.1 115.2 256.5 171v-15.8l-72-40zM100.4 55.8 0 0v15.8l72 40z"/></g><g fill="#D80027"><path d="M144.3 0h-32.1v69.5H0v32h112.2V171h32.1v-69.5h112.2v-32H144.3z"/><path d="M156.1 115.2 256.5 171v-15.8l-72-40zM72 115.2l-72 40V171l100.4-55.8zM100.4 55.8 0 0v15.8l72 40zM184.5 55.8l72-40V0L156.1 55.8z"/></g></svg>