<svg xmlns="http://www.w3.org/2000/svg" viewBox="0 0 513 342"><path fill="#012169" d="M0 0h513v342H0z"/><path fill="#012169" d="M0 0h256.5v171H0z"/><g fill="#FFF"><path d="M256.5 0v30.6l-45.3 25.2h45.3v59.4h-59.2l59.2 32.9V171h-26.7l-73.7-40.9V171h-55.7v-48.7L12.8 171H0v-30.6l45.3-25.2H0V55.8h59.2L0 22.9V0h26.7l73.7 40.9V0h55.7v48.7L243.7 0z"/><path d="M156.1 115.2 256.5 171v-15.8l-72-40zM100.4 55.8 0 0v15.8l72 40z"/></g><g fill="#D80027"><path d="M144.3 0h-32.1v69.5H0v32h112.2V171h32.1v-69.5h112.2v-32H144.3z"/><path d="M156.1 115.2 256.5 171v-15.8l-72-40zM72 115.2l-72 40V171l100.4-55.8zM100.4 55.8 0 0v15.8l72 40zM184.5 55.8l72-40V0L156.1 55.8z"/></g><path fill="#1799f8" d="M448.9 169.5c0 9.6-.3 29.6-1.4 39.2-4.1 34.9-23.5 68.8-62.1 85.9-45.3-17.9-60.8-51-64.9-85.9-1.1-9.6-1.5-19.4-1.5-29l.3-47.1h129.2l.4 36.9z"/><path fill="#FFF" d="M447.5 208.7c-.2 1.6-.4 3.3-.6 4.9-4.8 33.1-22.9 65.4-61.5 81-43.2-17-59.4-47.9-64.2-81-.2-1.6-.4-3.2-.6-4.9"/><path fill="#1799f8" d="m385.4 251.7-22.9-43h45.8z"/><path fill="#FFF" d="m385.4 165.8-22.9 42.9h45.8z"/><ellipse fill="#dcb072" cx="474.8" cy="236.8" rx="16.8" ry="43.3"/><ellipse fill="#dcb072" cx="295.3" cy="236.8" rx="16.8" ry="43.3"/><path fill="#FFF" d="m385.4 31.5-33.4 44h68.5zM315.5 280s33.8 29.5 69.9 29.5 67.1-29.5 67.1-29.5l8.5 14.6S439.2 326 385.4 326 307 294.6 307 294.6l8.5-14.6z"/><ellipse fill="#A5A5A5" cx="386.3" cy="104.3" rx="34.3" ry="23.3"/></svg>