<svg xmlns="http://www.w3.org/2000/svg" viewBox="0 0 513 342"><path fill="#00B2EE" d="M0 171h256.5V0H513v342H0V171z"/><g fill="#FFDA44"><path d="m196.8 274.1 16.8 51.6-43.9-31.9H224l-43.9 31.9 16.7-51.6zM402.6 193.8l16.8 51.6-43.9-31.9h54.3l-43.9 31.9 16.7-51.6zM463.3 149.1l16.8 51.6-43.9-31.9h54.3l-43.9 31.9 16.7-51.6zM463.3 21.3 480.1 73l-44-32h54.3l-43.9 32 16.8-51.7zM410.3 75l16.8 51.6-43.9-31.9h54.3l-43.9 31.9L410.3 75zM332.9 107l16.8 51.6-43.9-31.9H360l-43.9 31.9 16.8-51.6zM350 245.4l16.8 51.6-43.9-31.9h54.3L333.3 297l16.7-51.6zM278.2 189.2l16.8 51.6-44-31.8h54.3l-43.9 31.9 16.8-51.7zM278.2 264.5l16.8 51.6-44-31.9h54.3l-43.9 31.9 16.8-51.6z"/></g><path fill="#012169" d="M0 0h256.5v171H0z"/><g fill="#FFF"><path d="M256.5 0v30.6l-45.3 25.2h45.3v59.4h-59.2l59.2 32.9V171h-26.7l-73.7-40.9V171h-55.7v-48.7L12.8 171H0v-30.6l45.3-25.2H0V55.8h59.2L0 22.9V0h26.7l73.7 40.9V0h55.7v48.7L243.7 0z"/><path d="M156.1 115.2 256.5 171v-15.8l-72-40zM100.4 55.8 0 0v15.8l72 40z"/></g><g fill="#D80027"><path d="M144.3 0h-32.1v69.5H0v32h112.2V171h32.1v-69.5h112.2v-32H144.3z"/><path d="M156.1 115.2 256.5 171v-15.8l-72-40zM72 115.2l-72 40V171l100.4-55.8zM100.4 55.8 0 0v15.8l72 40zM184.5 55.8l72-40V0L156.1 55.8z"/></g></svg>