<svg xmlns="http://www.w3.org/2000/svg" viewBox="0 0 513 342"><path fill="#3081f7" d="M0 0h513v108H0z"/><path fill="#ee162e" d="M0 108h513v9H0z"/><path fill="#FFF" d="M0 117h513v108H0z"/><path fill="#ee162e" d="M0 225h513v9H0z"/><path fill="#308738" d="M0 233h513v108H0z"/><g fill="#FFF"><path d="M53.5 54c0-23.1 16.4-35 34.3-38.9-2.7-.6-5.6-.9-8.5-.9-22 0-39.8 17.8-39.8 39.8s17.8 39.8 39.8 39.8c2.9 0 5.8-.3 8.5-.9C69.9 89 53.5 77.1 53.5 54zM111.4 75.3l1.8 5.9h6.2l-5 3.6 1.9 5.8-4.9-3.6-5 3.6 1.9-5.8-4.9-3.6h6.1zM139.2 75.3l1.9 5.9h6.1l-5 3.6 1.9 5.8-4.9-3.6-5 3.6 1.9-5.8-4.9-3.6h6.1zM167 75.3l1.9 5.9h6.1l-4.9 3.6 1.9 5.8-5-3.6-4.9 3.6 1.9-5.8-5-3.6h6.1zM194.9 75.3l1.9 5.9h6.1l-5 3.6 1.9 5.8-4.9-3.6-5 3.6 1.9-5.8-4.9-3.6h6.1zM222.7 75.3l1.9 5.9h6.1l-4.9 3.6 1.9 5.8-5-3.6-4.9 3.6 1.9-5.8-5-3.6h6.1zM139.2 46.4l1.9 5.8h6.1l-5 3.6 1.9 5.8-4.9-3.6-5 3.6 1.9-5.8-4.9-3.6h6.1zM167 46.4l1.9 5.8h6.1l-4.9 3.6 1.9 5.8-5-3.6-4.9 3.6 1.9-5.8-5-3.6h6.1zM194.9 46.4l1.9 5.8h6.1l-5 3.6 1.9 5.8-4.9-3.6-5 3.6 1.9-5.8-4.9-3.6h6.1zM222.7 46.4l1.9 5.8h6.1l-4.9 3.6 1.9 5.8-5-3.6-4.9 3.6 1.9-5.8-5-3.6h6.1zM167 17.4l1.9 5.8h6.1l-4.9 3.6 1.9 5.9-5-3.6-4.9 3.6 1.9-5.9-5-3.6h6.1zM194.9 17.4l1.9 5.8h6.1l-5 3.6 1.9 5.9-4.9-3.6-5 3.6 1.9-5.9-4.9-3.6h6.1zM222.7 17.4l1.9 5.8h6.1l-4.9 3.6 1.9 5.9-5-3.6-4.9 3.6 1.9-5.9-5-3.6h6.1z"/></g></svg>