<svg width="120" height="120" viewBox="0 0 120 120" fill="none" xmlns="http://www.w3.org/2000/svg">
<rect width="120" height="120" fill="black"/>
<path d="M95.8416 50.5715H94.7525V52H97.0297V52.4762H96.1386L95.8416 54.381H96.9307C96.8647 54.508 96.8317 54.6667 96.8317 54.8572H95.4455C95.3795 55.1746 95.3135 55.4921 95.2475 55.8095C95.1815 56.127 95.0825 56.4445 94.9505 56.7619C94.9505 57.0159 94.8845 57.3334 94.7525 57.7143H93.7624L93.1683 59.1429H93.0693C93.0033 59.4603 92.8713 59.7778 92.6733 60.0953C92.4752 60.4127 92.3102 60.7302 92.1782 61.0476H92.3762L92.0792 61.5238H92.9703C92.7723 61.8413 92.5742 62.1588 92.3762 62.4762C92.1782 62.7937 91.9472 63.1111 91.6832 63.4286H92.3762C92.1122 63.7461 91.8152 64.0635 91.4851 64.381C91.2211 64.6984 90.9241 65.0159 90.594 65.3334H90.396C90 65.6508 89.604 65.9683 89.2079 66.2857C88.8779 66.6032 88.4818 66.9207 88.0198 67.2381H87.4257C86.8977 67.5556 86.3366 67.873 85.7426 68.1905C85.2145 68.508 84.6535 68.8254 84.0594 69.1429H84.3564C84.2244 69.2064 84.0594 69.2699 83.8614 69.3334C83.6634 69.3969 83.4983 69.4921 83.3663 69.6191H83.2673C82.0132 70.1905 80.6271 70.6667 79.1089 71.0476C78.3828 71.2381 77.6238 71.4286 76.8317 71.6191C76.0396 71.7461 75.2475 71.873 74.4554 72H74.3564C71.7162 72.381 68.9109 72.5714 65.9406 72.5714H59.0099V73.4286H59.703V75.3334H60.8911V75.8095H58.5149V76.7619H59.4059V78.1905H56.9307V78.6667H60V80.5715H59.1089V82.9524H59.5049V84.381H58.3168V86.2857H57.8218V87.2381H61.0891V88.6667H58.3168V90.5715H60.198V90.7619C60.198 91.0794 60.165 91.3334 60.099 91.5238H59.5049C59.5049 91.5873 59.4389 91.7461 59.3069 92H59.604C59.538 92.127 59.4059 92.2857 59.2079 92.4762H59.3069C59.0429 92.7302 58.8449 92.8889 58.7129 92.9524H58.8119C58.4818 93.2064 58.0198 93.3334 57.4257 93.3334H37.0297C36.4356 93.3334 35.9736 93.2064 35.6436 92.9524H35.4455C35.3135 92.8889 35.1155 92.7302 34.8515 92.4762C34.7855 92.3492 34.7195 92.254 34.6535 92.1905C34.5875 92.127 34.5545 92.0635 34.5545 92H34.2574C34.1254 91.7461 34.0594 91.5873 34.0594 91.5238H34.5545C34.4884 91.3334 34.4554 91.0794 34.4554 90.7619V90.5715H32.5743V88.6667H35.3465V87.2381H32.0792V86.2857H32.5743V84.381H33.7624V82.9524H33.3663V80.5715H34.2574V78.6667H31.1881V78.1905H33.6634V76.7619H32.7723V75.8095H35.1485V75.3334H33.9604V73.4286H33.2673V72H33.3663V69.1429H33.1683V67.2381H33.7624V65.3334H34.0594V63.4286H33.3663V61.5238H32.4752V61.0476H32.2772V59.1429H32.3762V57.7143H33.3663V54.8572H33.0693V54.381H32.7723V52.4762H33.8614V52H33.4653V50.5715H33.8614V49.6191H33.7624V48.6667H30.9901V46.7619H20V45.3334H25.0495V43.4286H34.0594V42.4762H30.297V40.5715H28.0198V39.1429H29.5049V38.6667H27.4257V36.7619H35.0495V36.2857H34.0594V34.8572H31.7822V33.4286H28.6139V31.5238H35.7426V30.0953H32.2772V29.6191H31.5842V29.1429H33.3663C33.3663 28.8889 33.4323 28.5715 33.5644 28.1905H32.4752C32.5413 28 32.6403 27.8413 32.7723 27.7143C32.9043 27.5238 33.0363 27.3651 33.1683 27.2381H39.2079C39.736 26.8572 40.297 26.6667 40.8911 26.6667H70.8911C73.7954 26.6667 76.4686 26.8572 78.9109 27.2381H72.9703C73.7624 27.3651 74.5215 27.5238 75.2475 27.7143C76.0396 27.8413 76.7657 28 77.4257 28.1905H78.6139C79.1419 28.3175 79.637 28.4762 80.099 28.6667C80.6271 28.7937 81.1221 28.9524 81.5842 29.1429H79.802C80 29.2064 80.198 29.2699 80.396 29.3334C80.5941 29.3968 80.7921 29.4921 80.9901 29.6191H81.5842L82.6733 30.0953H86.2376L88.8119 31.5238H81.5842C82.1122 31.7778 82.5742 32.0953 82.9703 32.4762C83.3663 32.7937 83.7624 33.1111 84.1584 33.4286H87.3267L88.8119 34.8572H91.0891C91.2871 35.1111 91.4851 35.3651 91.6832 35.6191C91.9472 35.8095 92.1452 36.0318 92.2772 36.2857H93.2673C93.4653 36.4762 93.5974 36.6349 93.6634 36.7619H86.0396C86.2376 37.0159 86.4356 37.3334 86.6337 37.7143C86.8317 38.0318 87.0297 38.3492 87.2277 38.6667H89.3069L89.5049 39.1429H88.1188L88.7129 40.5715H91.0891L91.6832 42.4762H95.4455L95.7426 43.4286H86.7327C86.8647 43.6826 86.9307 44 86.9307 44.381C86.9967 44.6984 87.0627 45.0159 87.1287 45.3334H99.802C99.868 45.5873 99.901 45.8413 99.901 46.0953C99.901 46.2857 99.934 46.508 100 46.7619H99.5049C99.571 47.0794 99.604 47.3968 99.604 47.7143C99.67 48.0318 99.703 48.3492 99.703 48.6667H95.8416V50.5715ZM70.9901 52H68.7129L69.0099 50.5715H70.099V49.6191C70.099 49.4921 70.099 49.3334 70.099 49.1429C70.099 48.9524 70.066 48.7937 70 48.6667H73.8614C73.7954 48.3492 73.7294 48.0318 73.6634 47.7143C73.5974 47.3334 73.4983 47.0159 73.3663 46.7619H73.7624C73.6304 46.254 73.3003 45.7778 72.7723 45.3334H60.099C59.3069 44.6984 58.3498 44.381 57.2277 44.381H50.297V45.3334H45.2475V46.7619H56.2376V48.6667H59.0099V49.6191H59.1089V50.5715H58.7129V52H59.1089V52.4762H58.0198V54.381H58.3168V54.8572H58.6139V54.9524H65.5446C65.9406 54.9524 66.2376 54.9207 66.4356 54.8572H67.8218C68.0858 54.7937 68.3168 54.7302 68.5149 54.6667C68.7129 54.5397 68.9109 54.4445 69.1089 54.381H68.1188C68.9109 53.9365 69.5049 53.3016 69.901 52.4762H70.7921C70.9241 52.2222 70.9901 52.0635 70.9901 52Z" fill="white"/>
</svg>
