<svg width="72" height="72" viewBox="0 0 72 72" fill="none" xmlns="http://www.w3.org/2000/svg">
<rect width="72" height="72" fill="#990316"/>
<path d="M57.5049 30.3429H56.8515V31.2H58.2178V31.4857H57.6832L57.5049 32.6286H58.1584C58.1188 32.7048 58.099 32.8 58.099 32.9143H57.2673C57.2277 33.1048 57.1881 33.2952 57.1485 33.4857C57.1089 33.6762 57.0495 33.8667 56.9703 34.0571C56.9703 34.2095 56.9307 34.4 56.8515 34.6286H56.2574L55.901 35.4857H55.8416C55.802 35.6762 55.7228 35.8667 55.604 36.0571C55.4851 36.2476 55.3861 36.4381 55.3069 36.6286H55.4257L55.2475 36.9143H55.7822C55.6634 37.1048 55.5446 37.2952 55.4257 37.4857C55.3069 37.6762 55.1683 37.8667 55.0099 38.0571H55.4257C55.2673 38.2476 55.0891 38.4381 54.8911 38.6286C54.7327 38.819 54.5545 39.0095 54.3564 39.2H54.2376C54 39.3905 53.7624 39.581 53.5247 39.7714C53.3267 39.9619 53.0891 40.1524 52.8119 40.3429H52.4554C52.1386 40.5333 51.802 40.7238 51.4455 40.9143C51.1287 41.1048 50.7921 41.2952 50.4356 41.4857H50.6139C50.5347 41.5238 50.4356 41.5619 50.3168 41.6C50.198 41.6381 50.099 41.6952 50.0198 41.7714H49.9604C49.2079 42.1143 48.3762 42.4 47.4653 42.6286C47.0297 42.7429 46.5743 42.8571 46.099 42.9714C45.6238 43.0476 45.1485 43.1238 44.6733 43.2H44.6139C43.0297 43.4286 41.3465 43.5429 39.5644 43.5429H35.4059V44.0571H35.8218V45.2H36.5347V45.4857H35.1089V46.0571H35.6436V46.9143H34.1584V47.2H36V48.3429H35.4653V49.7714H35.703V50.6286H34.9901V51.7714H34.6931V52.3429H36.6535V53.2H34.9901V54.3429H36.1188V54.4571C36.1188 54.6476 36.099 54.8 36.0594 54.9143H35.703C35.703 54.9524 35.6634 55.0476 35.5842 55.2H35.7624C35.7228 55.2762 35.6436 55.3714 35.5247 55.4857H35.5842C35.4257 55.6381 35.3069 55.7333 35.2277 55.7714H35.2871C35.0891 55.9238 34.8119 56 34.4554 56H22.2178C21.8614 56 21.5842 55.9238 21.3861 55.7714H21.2673C21.1881 55.7333 21.0693 55.6381 20.9109 55.4857C20.8713 55.4095 20.8317 55.3524 20.7921 55.3143C20.7525 55.2762 20.7327 55.2381 20.7327 55.2H20.5545C20.4752 55.0476 20.4356 54.9524 20.4356 54.9143H20.7327C20.6931 54.8 20.6733 54.6476 20.6733 54.4571V54.3429H19.5446V53.2H21.2079V52.3429H19.2475V51.7714H19.5446V50.6286H20.2574V49.7714H20.0198V48.3429H20.5545V47.2H18.7129V46.9143H20.198V46.0571H19.6634V45.4857H21.0891V45.2H20.3762V44.0571H19.9604V43.2H20.0198V41.4857H19.901V40.3429H20.2574V39.2H20.4356V38.0571H20.0198V36.9143H19.4851V36.6286H19.3663V35.4857H19.4257V34.6286H20.0198V32.9143H19.8416V32.6286H19.6634V31.4857H20.3168V31.2H20.0792V30.3429H20.3168V29.7714H20.2574V29.2H18.5941V28.0571H12V27.2H15.0297V26.0571H20.4356V25.4857H18.1782V24.3429H16.8119V23.4857H17.703V23.2H16.4554V22.0571H21.0297V21.7714H20.4356V20.9143H19.0693V20.0571H17.1683V18.9143H21.4455V18.0571H19.3663V17.7714H18.9505V17.4857H20.0198C20.0198 17.3333 20.0594 17.1429 20.1386 16.9143H19.4851C19.5248 16.8 19.5842 16.7048 19.6634 16.6286C19.7426 16.5143 19.8218 16.419 19.901 16.3429H23.5248C23.8416 16.1143 24.1782 16 24.5347 16H42.5347C44.2772 16 45.8812 16.1143 47.3465 16.3429H43.7822C44.2574 16.419 44.7129 16.5143 45.1485 16.6286C45.6238 16.7048 46.0594 16.8 46.4554 16.9143H47.1683C47.4851 16.9905 47.7822 17.0857 48.0594 17.2C48.3762 17.2762 48.6733 17.3714 48.9505 17.4857H47.8812C48 17.5238 48.1188 17.5619 48.2376 17.6C48.3564 17.6381 48.4753 17.6952 48.5941 17.7714H48.9505L49.604 18.0571H51.7426L53.2871 18.9143H48.9505C49.2673 19.0667 49.5446 19.2571 49.7822 19.4857C50.0198 19.6762 50.2574 19.8667 50.495 20.0571H52.396L53.2871 20.9143H54.6535C54.7723 21.0667 54.8911 21.219 55.0099 21.3714C55.1683 21.4857 55.2871 21.619 55.3663 21.7714H55.9604C56.0792 21.8857 56.1584 21.981 56.198 22.0571H51.6238C51.7426 22.2095 51.8614 22.4 51.9802 22.6286C52.099 22.819 52.2178 23.0095 52.3366 23.2H53.5842L53.703 23.4857H52.8713L53.2277 24.3429H54.6535L55.0099 25.4857H57.2673L57.4455 26.0571H52.0396C52.1188 26.2095 52.1584 26.4 52.1584 26.6286C52.198 26.819 52.2376 27.0095 52.2772 27.2H59.8812C59.9208 27.3524 59.9406 27.5048 59.9406 27.6571C59.9406 27.7714 59.9604 27.9048 60 28.0571H59.703C59.7426 28.2476 59.7624 28.4381 59.7624 28.6286C59.802 28.819 59.8218 29.0095 59.8218 29.2H57.5049V30.3429ZM42.5941 31.2H41.2277L41.4059 30.3429H42.0594V29.7714C42.0594 29.6952 42.0594 29.6 42.0594 29.4857C42.0594 29.3714 42.0396 29.2762 42 29.2H44.3168C44.2772 29.0095 44.2376 28.819 44.198 28.6286C44.1584 28.4 44.099 28.2095 44.0198 28.0571H44.2574C44.1782 27.7524 43.9802 27.4667 43.6634 27.2H36.0594C35.5842 26.819 35.0099 26.6286 34.3366 26.6286H30.1782V27.2H27.1485V28.0571H33.7426V29.2H35.4059V29.7714H35.4653V30.3429H35.2277V31.2H35.4653V31.4857H34.8119V32.6286H34.9901V32.9143H35.1683V32.9714H39.3267C39.5644 32.9714 39.7426 32.9524 39.8614 32.9143H40.6931C40.8515 32.8762 40.9901 32.8381 41.1089 32.8C41.2277 32.7238 41.3465 32.6667 41.4653 32.6286H40.8713C41.3465 32.3619 41.703 31.981 41.9406 31.4857H42.4752C42.5545 31.3333 42.5941 31.2381 42.5941 31.2Z" fill="white"/>
</svg>
