<svg width="300" height="300" viewBox="0 0 300 300" fill="none" xmlns="http://www.w3.org/2000/svg">
<rect width="300" height="300" fill="#990316"/>
<path d="M239.604 126.429H236.881V130H242.574V131.191H240.347L239.604 135.952H242.327C242.162 136.27 242.079 136.667 242.079 137.143H238.614C238.449 137.937 238.284 138.73 238.119 139.524C237.954 140.317 237.706 141.111 237.376 141.905C237.376 142.54 237.211 143.333 236.881 144.286H234.406L232.921 147.857H232.673C232.508 148.651 232.178 149.444 231.683 150.238C231.188 151.032 230.776 151.825 230.446 152.619H230.941L230.198 153.81H232.426C231.931 154.603 231.436 155.397 230.941 156.191C230.446 156.984 229.868 157.778 229.208 158.571H230.941C230.281 159.365 229.538 160.159 228.713 160.952C228.053 161.746 227.31 162.54 226.485 163.333H225.99C225 164.127 224.01 164.921 223.02 165.714C222.195 166.508 221.205 167.302 220.049 168.095H218.564C217.244 168.889 215.842 169.683 214.356 170.476C213.036 171.27 211.634 172.064 210.148 172.857H210.891C210.561 173.016 210.148 173.175 209.653 173.333C209.158 173.492 208.746 173.73 208.416 174.048H208.168C205.033 175.476 201.568 176.667 197.772 177.619C195.957 178.095 194.059 178.571 192.079 179.048C190.099 179.365 188.119 179.683 186.139 180H185.891C179.29 180.952 172.277 181.429 164.851 181.429H147.525V183.571H149.257V188.333H152.228V189.524H146.287V191.905H148.515V195.476H142.327V196.667H150V201.429H147.772V207.381H148.762V210.952H145.792V215.714H144.554V218.095H152.723V221.667H145.792V226.429H150.495V226.905C150.495 227.698 150.413 228.333 150.248 228.81H148.762C148.762 228.968 148.597 229.365 148.267 230H149.01C148.845 230.317 148.515 230.714 148.02 231.191H148.267C147.607 231.825 147.112 232.222 146.782 232.381H147.03C146.205 233.016 145.049 233.333 143.564 233.333H92.5743C91.0891 233.333 89.934 233.016 89.1089 232.381H88.6139C88.2838 232.222 87.7888 231.825 87.1287 231.191C86.9637 230.873 86.7987 230.635 86.6337 230.476C86.4686 230.318 86.3861 230.159 86.3861 230H85.6436C85.3135 229.365 85.1485 228.968 85.1485 228.81H86.3861C86.2211 228.333 86.1386 227.698 86.1386 226.905V226.429H81.4356V221.667H88.3663V218.095H80.198V215.714H81.4356V210.952H84.4059V207.381H83.4158V201.429H85.6436V196.667H77.9703V195.476H84.1584V191.905H81.9307V189.524H87.8713V188.333H84.901V183.571H83.1683V180H83.4158V172.857H82.9208V168.095H84.4059V163.333H85.1485V158.571H83.4158V153.81H81.1881V152.619H80.6931V147.857H80.9406V144.286H83.4158V137.143H82.6733V135.952H81.9307V131.191H84.6535V130H83.6634V126.429H84.6535V124.048H84.4059V121.667H77.4752V116.905H50V113.333H62.6238V108.571H85.1485V106.191H75.7426V101.429H70.0495V97.8572H73.7624V96.6667H68.5644V91.9048H87.6238V90.7143H85.1485V87.1429H79.4554V83.5715H71.5346V78.8095H89.3564V75.2381H80.6931V74.0476H78.9604V72.8572H83.4158C83.4158 72.2222 83.5809 71.4286 83.9109 70.4762H81.1881C81.3531 70 81.6007 69.6032 81.9307 69.2857C82.2607 68.8095 82.5908 68.4127 82.9208 68.0953H98.0198C99.3399 67.1429 100.743 66.6667 102.228 66.6667H177.228C184.488 66.6667 191.172 67.1429 197.277 68.0953H182.426C184.406 68.4127 186.304 68.8095 188.119 69.2857C190.099 69.6032 191.914 70 193.564 70.4762H196.535C197.855 70.7937 199.092 71.1905 200.248 71.6667C201.568 71.9841 202.805 72.381 203.96 72.8572H199.505C200 73.0159 200.495 73.1746 200.99 73.3334C201.485 73.4921 201.98 73.7302 202.475 74.0476H203.96L206.683 75.2381H215.594L222.03 78.8095H203.96C205.281 79.4445 206.436 80.2381 207.426 81.1905C208.416 81.9842 209.406 82.7778 210.396 83.5715H218.317L222.03 87.1429H227.723C228.218 87.7778 228.713 88.4127 229.208 89.0477C229.868 89.5238 230.363 90.0794 230.693 90.7143H233.168C233.663 91.1905 233.993 91.5873 234.158 91.9048H215.099C215.594 92.5397 216.089 93.3334 216.584 94.2857C217.079 95.0794 217.574 95.873 218.069 96.6667H223.267L223.762 97.8572H220.297L221.782 101.429H227.723L229.208 106.191H238.614L239.356 108.571H216.832C217.162 109.206 217.327 110 217.327 110.952C217.492 111.746 217.657 112.54 217.822 113.333H249.505C249.67 113.968 249.752 114.603 249.752 115.238C249.752 115.714 249.835 116.27 250 116.905H248.762C248.927 117.698 249.01 118.492 249.01 119.286C249.175 120.079 249.257 120.873 249.257 121.667H239.604V126.429ZM177.475 130H171.782L172.525 126.429H175.248V124.048C175.248 123.73 175.248 123.333 175.248 122.857C175.248 122.381 175.165 121.984 175 121.667H184.653C184.488 120.873 184.323 120.079 184.158 119.286C183.993 118.333 183.746 117.54 183.416 116.905H184.406C184.076 115.635 183.251 114.444 181.931 113.333H150.248C148.267 111.746 145.875 110.952 143.069 110.952H125.743V113.333H113.119V116.905H140.594V121.667H147.525V124.048H147.772V126.429H146.782V130H147.772V131.191H145.049V135.952H145.792V137.143H146.535V137.381H163.861C164.851 137.381 165.594 137.302 166.089 137.143H169.554C170.215 136.984 170.792 136.825 171.287 136.667C171.782 136.349 172.277 136.111 172.772 135.952H170.297C172.277 134.841 173.762 133.254 174.752 131.191H176.98C177.31 130.556 177.475 130.159 177.475 130Z" fill="white"/>
</svg>
