<svg width="125" height="30" viewBox="0 0 125 30" fill="none" xmlns="http://www.w3.org/2000/svg">
<path d="M25.9501 8.7H25.5834V9.2H26.3501V9.36667H26.0501L25.9501 10.0333H26.3167C26.2945 10.0778 26.2834 10.1333 26.2834 10.2H25.8167C25.7945 10.3111 25.7723 10.4222 25.7501 10.5333C25.7279 10.6444 25.6945 10.7556 25.6501 10.8667C25.6501 10.9556 25.6279 11.0667 25.5834 11.2H25.2501L25.0501 11.7H25.0167C24.9945 11.8111 24.9501 11.9222 24.8834 12.0333C24.8167 12.1444 24.7612 12.2556 24.7167 12.3667H24.7834L24.6834 12.5333H24.9834C24.9167 12.6444 24.8501 12.7556 24.7834 12.8667C24.7167 12.9778 24.639 13.0889 24.5501 13.2H24.7834C24.6945 13.3111 24.5945 13.4222 24.4834 13.5333C24.3945 13.6444 24.2945 13.7556 24.1834 13.8667H24.1167C23.9834 13.9778 23.8501 14.0889 23.7167 14.2C23.6056 14.3111 23.4723 14.4222 23.3167 14.5333H23.1167C22.939 14.6444 22.7501 14.7556 22.5501 14.8667C22.3723 14.9778 22.1834 15.0889 21.9834 15.2H22.0834C22.039 15.2222 21.9834 15.2444 21.9167 15.2667C21.8501 15.2889 21.7945 15.3222 21.7501 15.3667H21.7167C21.2945 15.5667 20.8279 15.7333 20.3167 15.8667C20.0723 15.9333 19.8167 16 19.5501 16.0667C19.2834 16.1111 19.0167 16.1556 18.7501 16.2H18.7167C17.8279 16.3333 16.8834 16.4 15.8834 16.4H13.5501V16.7H13.7834V17.3667H14.1834V17.5333H13.3834V17.8667H13.6834V18.3667H12.8501V18.5333H13.8834V19.2H13.5834V20.0333H13.7167V20.5333H13.3167V21.2H13.1501V21.5333H14.2501V22.0333H13.3167V22.7H13.9501V22.7667C13.9501 22.8778 13.939 22.9667 13.9167 23.0333H13.7167C13.7167 23.0556 13.6945 23.1111 13.6501 23.2H13.7501C13.7279 23.2444 13.6834 23.3 13.6167 23.3667H13.6501C13.5612 23.4556 13.4945 23.5111 13.4501 23.5333H13.4834C13.3723 23.6222 13.2167 23.6667 13.0167 23.6667H6.15008C5.95008 23.6667 5.79453 23.6222 5.68341 23.5333H5.61675C5.5723 23.5111 5.50564 23.4556 5.41675 23.3667C5.39453 23.3222 5.3723 23.2889 5.35008 23.2667C5.32786 23.2444 5.31675 23.2222 5.31675 23.2H5.21675C5.1723 23.1111 5.15008 23.0556 5.15008 23.0333H5.31675C5.29453 22.9667 5.28341 22.8778 5.28341 22.7667V22.7H4.65008V22.0333H5.58341V21.5333H4.48341V21.2H4.65008V20.5333H5.05008V20.0333H4.91675V19.2H5.21675V18.5333H4.18341V18.3667H5.01675V17.8667H4.71675V17.5333H5.51675V17.3667H5.11675V16.7H4.88341V16.2H4.91675V15.2H4.85008V14.5333H5.05008V13.8667H5.15008V13.2H4.91675V12.5333H4.61675V12.3667H4.55008V11.7H4.58341V11.2H4.91675V10.2H4.81675V10.0333H4.71675V9.36667H5.08341V9.2H4.95008V8.7H5.08341V8.36667H5.05008V8.03333H4.11675V7.36667H0.416748V6.86667H2.11675V6.2H5.15008V5.86667H3.88341V5.2H3.11675V4.7H3.61675V4.53333H2.91675V3.86667H5.48341V3.7H5.15008V3.2H4.38341V2.7H3.31675V2.03333H5.71675V1.53333H4.55008V1.36667H4.31675V1.2H4.91675C4.91675 1.11111 4.93897 1 4.98341 0.866667H4.61675C4.63897 0.8 4.6723 0.744445 4.71675 0.700001C4.76119 0.633334 4.80564 0.577778 4.85008 0.533334H6.88341C7.06119 0.4 7.25008 0.333333 7.45008 0.333333H17.5501C18.5279 0.333333 19.4279 0.4 20.2501 0.533334H18.2501C18.5167 0.577778 18.7723 0.633334 19.0167 0.700001C19.2834 0.744445 19.5279 0.8 19.7501 0.866667H20.1501C20.3279 0.911111 20.4945 0.966667 20.6501 1.03333C20.8279 1.07778 20.9945 1.13333 21.1501 1.2H20.5501C20.6167 1.22222 20.6834 1.24444 20.7501 1.26667C20.8167 1.28889 20.8834 1.32222 20.9501 1.36667H21.1501L21.5167 1.53333H22.7167L23.5834 2.03333H21.1501C21.3279 2.12222 21.4834 2.23333 21.6167 2.36667C21.7501 2.47778 21.8834 2.58889 22.0167 2.7H23.0834L23.5834 3.2H24.3501C24.4167 3.28889 24.4834 3.37778 24.5501 3.46667C24.639 3.53333 24.7056 3.61111 24.7501 3.7H25.0834C25.1501 3.76667 25.1945 3.82222 25.2167 3.86667H22.6501C22.7167 3.95555 22.7834 4.06667 22.8501 4.2C22.9167 4.31111 22.9834 4.42222 23.0501 4.53333H23.7501L23.8167 4.7H23.3501L23.5501 5.2H24.3501L24.5501 5.86667H25.8167L25.9167 6.2H22.8834C22.9279 6.28889 22.9501 6.4 22.9501 6.53333C22.9723 6.64445 22.9945 6.75556 23.0167 6.86667H27.2834C27.3056 6.95556 27.3167 7.04445 27.3167 7.13333C27.3167 7.2 27.3279 7.27778 27.3501 7.36667H27.1834C27.2056 7.47778 27.2167 7.58889 27.2167 7.7C27.239 7.81111 27.2501 7.92222 27.2501 8.03333H25.9501V8.7ZM17.5834 9.2H16.8167L16.9167 8.7H17.2834V8.36667C17.2834 8.32222 17.2834 8.26667 17.2834 8.2C17.2834 8.13333 17.2723 8.07778 17.2501 8.03333H18.5501C18.5279 7.92222 18.5056 7.81111 18.4834 7.7C18.4612 7.56667 18.4279 7.45555 18.3834 7.36667H18.5167C18.4723 7.18889 18.3612 7.02222 18.1834 6.86667H13.9167C13.6501 6.64445 13.3279 6.53333 12.9501 6.53333H10.6167V6.86667H8.91675V7.36667H12.6167V8.03333H13.5501V8.36667H13.5834V8.7H13.4501V9.2H13.5834V9.36667H13.2167V10.0333H13.3167V10.2H13.4167V10.2333H15.7501C15.8834 10.2333 15.9834 10.2222 16.0501 10.2H16.5167C16.6056 10.1778 16.6834 10.1556 16.7501 10.1333C16.8167 10.0889 16.8834 10.0556 16.9501 10.0333H16.6167C16.8834 9.87778 17.0834 9.65556 17.2167 9.36667H17.5167C17.5612 9.27778 17.5834 9.22222 17.5834 9.2Z" fill="white"/>
<path d="M45.3193 6.2V6.3C45.3193 6.5 45.2527 6.68889 45.1193 6.86667H49.7193C49.5638 7.08889 49.3305 7.2 49.0193 7.2H39.486V7.36667H36.9527V7.86667H35.8193V8.53333H36.9527V9.03333H36.6527V9.53333H36.5193V9.66667H45.386C45.6082 9.66667 45.7971 9.73333 45.9527 9.86667H46.0193C46.1305 9.95555 46.2193 10.0667 46.286 10.2H46.086C46.1527 10.2889 46.186 10.4111 46.186 10.5667V10.8667H46.0527V11.0333H46.9193V11.7H46.1527V12.0333H46.3527V12.5333H46.4527V12.7H46.7527V13.2H46.2527V13.3667H44.5527V14.0333H44.1527V14.5333H46.686V15.2H45.7527V15.6C45.7527 15.7111 45.7416 15.8 45.7193 15.8667H45.6527C45.5638 16.1111 45.4305 16.2778 45.2527 16.3667H44.586C44.4749 16.4556 44.3193 16.5 44.1193 16.5H35.2527V16.8667H36.2527V17.2H37.7527V17.7H34.6193V18.0333H37.486V18.5333H35.3193V18.7H36.986V19.3667H36.0527V20.0333H36.486V20.2H36.286V20.8667H36.8193V21.0333H36.586V21.2H36.1194V21.5333H36.586V21.8667H36.1194V22.3667H37.686V22.5333H38.7193V22.7667C38.7193 22.7889 38.7082 22.8111 38.686 22.8333C38.686 22.8333 38.686 22.8444 38.686 22.8667H41.486C41.486 22.9333 41.4749 22.9889 41.4527 23.0333H36.786C36.7416 23.2333 36.6193 23.4 36.4193 23.5333H38.8193C38.7082 23.6222 38.5527 23.6667 38.3527 23.6667H31.986C31.786 23.6667 31.6305 23.6222 31.5193 23.5333H29.086C28.9305 23.4222 28.8082 23.2556 28.7193 23.0333H33.3527C33.3527 22.9667 33.3416 22.9111 33.3193 22.8667H30.5527V22.5333H29.5193V22.3667H27.9527V21.8667H28.4193V21.5333H27.9527V21.2H28.4193V21.0333H28.6527V20.8667H28.1193V20.2H28.3193V20.0333H27.886V19.3667H28.8193V18.7H27.1527V18.5333H29.3193V18.0333H26.4527V17.7H29.586V17.2H28.086V16.8667H27.086V16.3667H27.7527V15.8667H27.8193V15.2H28.7527V14.5333H26.2193V14.0333H26.6193V13.3667H28.3193V13.2H28.8193V12.7H28.5193V12.5333H28.4193V12.0333H28.2193V11.7H28.986V11.0333H28.1193V10.8667H28.2527V10.2H28.4193V9.86667H28.3527V9.53333H28.486V9.03333H28.786V8.53333H27.6527V7.86667H28.786V7.36667H31.3193V6.86667H26.7193V6.2H31.786V5.7H26.886V5.36667H27.0193V5.03333H29.8527V4.36667H28.6193V3.7H29.186V3.03333H28.3193V2.36667H28.4193V1.86667H28.1193V1.36667H28.286V1.23333C28.286 1.14444 28.2971 1.07778 28.3193 1.03333H26.986C27.0082 0.922223 27.0416 0.833334 27.086 0.766667C27.1527 0.677778 27.2193 0.6 27.286 0.533334H27.0193C27.1971 0.4 27.386 0.333333 27.586 0.333333H44.386C44.6082 0.333333 44.7971 0.4 44.9527 0.533334H45.2193C45.3749 0.644445 45.486 0.811112 45.5527 1.03333H46.8527C46.8749 1.07778 46.886 1.14444 46.886 1.23333V1.36667H46.7193V1.86667H47.0193V2.36667H46.9193V3.03333H47.786V3.7H47.2193V4.36667H48.4527V5.03333H45.6193V5.36667H45.486V5.7H50.386V6.2H45.3193Z" fill="white"/>
<path d="M71.0022 8.7H70.6355V9.2H71.4021V9.36667H71.1021L71.0022 10.0333H71.3688C71.3466 10.0778 71.3355 10.1333 71.3355 10.2H70.8688C70.8466 10.3111 70.8244 10.4222 70.8021 10.5333C70.7799 10.6444 70.7466 10.7556 70.7021 10.8667C70.7021 10.9556 70.6799 11.0667 70.6355 11.2H70.3021L70.1021 11.7H70.0688C70.0466 11.8111 70.0022 11.9222 69.9355 12.0333C69.8688 12.1444 69.8133 12.2556 69.7688 12.3667H69.8355L69.7355 12.5333H70.0355C69.9688 12.6444 69.9022 12.7556 69.8355 12.8667C69.7688 12.9778 69.691 13.0889 69.6021 13.2H69.8355C69.7466 13.3111 69.6466 13.4222 69.5355 13.5333C69.4466 13.6444 69.3466 13.7556 69.2355 13.8667H69.1688C69.0355 13.9778 68.9022 14.0889 68.7688 14.2C68.6577 14.3111 68.5244 14.4222 68.3688 14.5333H68.1688C67.991 14.6444 67.8022 14.7556 67.6021 14.8667C67.4244 14.9778 67.2355 15.0889 67.0355 15.2H67.1355C67.091 15.2222 67.0355 15.2444 66.9688 15.2667C66.9022 15.2889 66.8466 15.3222 66.8022 15.3667H66.7688C66.3466 15.5667 65.8799 15.7333 65.3688 15.8667C65.1244 15.9333 64.8688 16 64.6021 16.0667C64.3355 16.1111 64.0688 16.1556 63.8022 16.2H63.7688C62.8799 16.3333 61.9355 16.4 60.9355 16.4H58.6021V16.7H58.8355V17.3667H59.2355V17.5333H58.4355V17.8667H58.7355V18.3667H57.9022V18.5333H58.9355V19.2H58.6355V20.0333H58.7688V20.5333H58.3688V21.2H58.2022V21.5333H59.3022V22.0333H58.3688V22.7H59.0022V22.7667C59.0022 22.8778 58.991 22.9667 58.9688 23.0333H58.7688C58.7688 23.0556 58.7466 23.1111 58.7022 23.2H58.8022C58.7799 23.2444 58.7355 23.3 58.6688 23.3667H58.7022C58.6133 23.4556 58.5466 23.5111 58.5022 23.5333H58.5355C58.4244 23.6222 58.2688 23.6667 58.0688 23.6667H51.2022C51.0022 23.6667 50.8466 23.6222 50.7355 23.5333H50.6688C50.6244 23.5111 50.5577 23.4556 50.4688 23.3667C50.4466 23.3222 50.4244 23.2889 50.4022 23.2667C50.3799 23.2444 50.3688 23.2222 50.3688 23.2H50.2688C50.2244 23.1111 50.2022 23.0556 50.2022 23.0333H50.3688C50.3466 22.9667 50.3355 22.8778 50.3355 22.7667V22.7H49.7022V22.0333H50.6355V21.5333H49.5355V21.2H49.7022V20.5333H50.1022V20.0333H49.9688V19.2H50.2688V18.5333H49.2355V18.3667H50.0688V17.8667H49.7688V17.5333H50.5688V17.3667H50.1688V16.7H49.9355V16.2H49.9688V15.2H49.9022V14.5333H50.1022V13.8667H50.2022V13.2H49.9688V12.5333H49.6688V12.3667H49.6022V11.7H49.6355V11.2H49.9688V10.2H49.8688V10.0333H49.7688V9.36667H50.1355V9.2H50.0022V8.7H50.1355V8.36667H50.1022V8.03333H49.1688V7.36667H45.4688V6.86667H47.1688V6.2H50.2022V5.86667H48.9355V5.2H48.1688V4.7H48.6688V4.53333H47.9688V3.86667H50.5355V3.7H50.2022V3.2H49.4355V2.7H48.3688V2.03333H50.7688V1.53333H49.6022V1.36667H49.3688V1.2H49.9688C49.9688 1.11111 49.991 1 50.0355 0.866667H49.6688C49.691 0.8 49.7244 0.744445 49.7688 0.700001C49.8133 0.633334 49.8577 0.577778 49.9022 0.533334H51.9355C52.1133 0.4 52.3022 0.333333 52.5022 0.333333H62.6022C63.5799 0.333333 64.4799 0.4 65.3021 0.533334H63.3022C63.5688 0.577778 63.8244 0.633334 64.0688 0.700001C64.3355 0.744445 64.5799 0.8 64.8022 0.866667H65.2022C65.3799 0.911111 65.5466 0.966667 65.7022 1.03333C65.8799 1.07778 66.0466 1.13333 66.2021 1.2H65.6021C65.6688 1.22222 65.7355 1.24444 65.8022 1.26667C65.8688 1.28889 65.9355 1.32222 66.0022 1.36667H66.2021L66.5688 1.53333H67.7688L68.6355 2.03333H66.2021C66.3799 2.12222 66.5355 2.23333 66.6688 2.36667C66.8022 2.47778 66.9355 2.58889 67.0688 2.7H68.1355L68.6355 3.2H69.4022C69.4688 3.28889 69.5355 3.37778 69.6021 3.46667C69.691 3.53333 69.7577 3.61111 69.8021 3.7H70.1355C70.2022 3.76667 70.2466 3.82222 70.2688 3.86667H67.7022C67.7688 3.95555 67.8355 4.06667 67.9022 4.2C67.9688 4.31111 68.0355 4.42222 68.1021 4.53333H68.8022L68.8688 4.7H68.4022L68.6021 5.2H69.4022L69.6021 5.86667H70.8688L70.9688 6.2H67.9355C67.9799 6.28889 68.0022 6.4 68.0022 6.53333C68.0244 6.64445 68.0466 6.75556 68.0688 6.86667H72.3355C72.3577 6.95556 72.3688 7.04445 72.3688 7.13333C72.3688 7.2 72.3799 7.27778 72.4022 7.36667H72.2355C72.2577 7.47778 72.2688 7.58889 72.2688 7.7C72.291 7.81111 72.3021 7.92222 72.3021 8.03333H71.0022V8.7ZM62.6355 9.2H61.8688L61.9688 8.7H62.3355V8.36667C62.3355 8.32222 62.3355 8.26667 62.3355 8.2C62.3355 8.13333 62.3244 8.07778 62.3022 8.03333H63.6021C63.5799 7.92222 63.5577 7.81111 63.5355 7.7C63.5133 7.56667 63.4799 7.45555 63.4355 7.36667H63.5688C63.5244 7.18889 63.4133 7.02222 63.2355 6.86667H58.9688C58.7022 6.64445 58.3799 6.53333 58.0021 6.53333H55.6688V6.86667H53.9688V7.36667H57.6688V8.03333H58.6021V8.36667H58.6355V8.7H58.5022V9.2H58.6355V9.36667H58.2688V10.0333H58.3688V10.2H58.4688V10.2333H60.8022C60.9355 10.2333 61.0355 10.2222 61.1021 10.2H61.5688C61.6577 10.1778 61.7355 10.1556 61.8022 10.1333C61.8688 10.0889 61.9355 10.0556 62.0022 10.0333H61.6688C61.9355 9.87778 62.1355 9.65556 62.2688 9.36667H62.5688C62.6133 9.27778 62.6355 9.22222 62.6355 9.2Z" fill="white"/>
<path d="M84.3048 10.7H81.5714V10.8667H81.7714V11.5333H82.6381V11.8667H80.4048V12.3667H80.9381V12.5333H80.9714V13.0333H81.1381V13.2H80.7714V13.3667H81.1714V13.5333H80.9048V13.8667H80.7048V14.3667H80.8714V14.5333H81.0048V14.7H80.1048V15.0333H79.7381V15.2H79.4381V15.7H80.2048V15.8667H79.6381V16.2H81.3381V16.8667H79.7714V17.5333H81.1714V18.2H80.9381V18.3667H81.2714V19.0333H80.1048V19.3667H82.3714V20.0333H80.4048V20.2H81.3047V20.7H80.8714V21.3667H80.7381V22.0333H80.9048V22.5333H80.5381V22.7667C80.5381 22.8778 80.527 22.9667 80.5048 23.0333H81.4048C81.3159 23.2778 81.1825 23.4444 81.0048 23.5333H79.9048C79.7936 23.6222 79.6381 23.6667 79.4381 23.6667H73.4714C73.2714 23.6667 73.1159 23.6222 73.0048 23.5333H74.1048C73.927 23.4444 73.7936 23.2778 73.7048 23.0333H72.8048C72.7825 22.9667 72.7714 22.8778 72.7714 22.7667V22.5333H73.1381V22.0333H72.9714V21.3667H73.1048V20.7H73.5381V20.2H72.6381V20.0333H74.6048V19.3667H72.3381V19.0333H73.5048V18.3667H73.1714V18.2H73.4048V17.5333H72.0048V16.8667H73.5714V16.2H71.8714V15.8667H72.4381V15.7H71.6714V15.2H71.9714V15.0333H72.3381V14.7H73.2381V14.5333H73.1048V14.3667H72.9381V13.8667H73.1381V13.5333H73.4048V13.3667H73.0048V13.2H73.3714V13.0333H73.2048V12.5333H73.1714V12.3667H72.6381V11.8667H74.8714V11.5333H74.0048V10.8667H73.8048V10.7H76.5381V10.5333H73.6381V10.0333H75.3381V9.53333H73.9714V9.36667H72.6381V8.7H73.5714V8.53333H73.1381V8.36667H72.6714V7.86667H72.8381V7.7H73.3714V7.03333H73.1381V6.7H73.6048V5.53333H75.0048V5.36667H74.0714V4.86667H72.8048V4.7H72.7381V4.36667H73.0381V4.03333H73.1048V3.86667H73.1381V3.36667H73.0714V3.2H73.1381V3.03333H73.2381V2.53333H73.0048V2.03333H73.2381V1.86667H73.1714V1.2H73.1381V1.03333H73.1048V0.9C73.1048 0.788889 73.127 0.666667 73.1714 0.533334H73.2048C73.3603 0.177778 73.6381 0 74.0381 0H80.0048C80.3603 0 80.6381 0.177778 80.8381 0.533334H80.8048C80.8492 0.666667 80.8714 0.788889 80.8714 0.9V1.03333H80.9048V1.2H80.9381V1.86667H81.0048V2.03333H80.7714V2.53333H81.0048V3.03333H80.9048V3.2H80.8381V3.36667H80.9048V3.86667H80.8714V4.03333H80.8048V4.36667H80.5048V4.7H80.5714V4.86667H81.8381V5.36667H82.7714V5.53333H81.3714V6.7H80.9048V7.03333H81.1381V7.7H80.6048V7.86667H80.4381V8.36667H80.9048V8.53333H81.3381V8.7H80.4048V9.36667H81.7381V9.53333H83.1048V10.0333H81.4048V10.5333H84.3048V10.7Z" fill="white"/>
<path d="M101.379 21.8667V22.2H104.279V22.7667C104.279 22.8111 104.268 22.8444 104.246 22.8667H102.679C102.635 23.1778 102.491 23.4 102.246 23.5333H101.946C101.835 23.6222 101.679 23.6667 101.479 23.6667H95.6462C95.4462 23.6667 95.2906 23.6222 95.1795 23.5333H95.4462C95.2239 23.3778 95.0906 23.1556 95.0462 22.8667H96.6462V22.2H95.3128C95.2017 22.3111 95.0795 22.4222 94.9462 22.5333C94.835 22.6444 94.7128 22.7556 94.5795 22.8667H94.2128C93.8128 23.1556 93.4128 23.3778 93.0128 23.5333H91.9462C91.7906 23.6 91.6128 23.6556 91.4128 23.7C91.235 23.7667 91.0462 23.8222 90.8462 23.8667H90.5795C90.3573 23.9111 90.1239 23.9444 89.8795 23.9667C89.6573 23.9889 89.4239 24 89.1795 24C88.9128 24 88.6462 23.9889 88.3795 23.9667C88.135 23.9444 87.8906 23.9111 87.6462 23.8667H87.9128C87.6906 23.8222 87.4684 23.7667 87.2462 23.7C87.0462 23.6556 86.8462 23.6 86.6462 23.5333H87.6795C87.1906 23.3556 86.7462 23.1333 86.3462 22.8667H86.7128C86.5573 22.7556 86.4128 22.6444 86.2795 22.5333C86.1462 22.4222 86.0128 22.3111 85.8795 22.2H84.2128L83.9128 21.8667C83.8906 21.8222 83.8573 21.7667 83.8128 21.7C83.7684 21.6333 83.7239 21.5778 83.6795 21.5333H84.6795C84.635 21.4444 84.5795 21.3667 84.5128 21.3C84.4684 21.2111 84.4239 21.1222 84.3795 21.0333H84.0795C84.0795 21.0111 84.0573 20.9556 84.0128 20.8667H83.7128L83.6128 20.7H83.6462L83.4462 20.2H83.2795C83.2573 20.1111 83.235 20.0333 83.2128 19.9667C83.1906 19.8778 83.1684 19.7889 83.1462 19.7H81.8795C81.8128 19.4556 81.7795 19.2333 81.7795 19.0333H82.8795V18.7C82.8795 18.5889 82.8795 18.4778 82.8795 18.3667C82.8795 18.2333 82.8906 18.1222 82.9128 18.0333H83.9128C83.9351 17.9222 83.9573 17.8111 83.9795 17.7C84.0017 17.5667 84.0239 17.4556 84.0462 17.3667H83.1128L83.1795 17.2H83.2128L83.2795 17.0333H83.2462C83.2906 16.9444 83.3351 16.8667 83.3795 16.8C83.4239 16.7111 83.4573 16.6222 83.4795 16.5333H81.5128L81.7128 16.2H80.9795C81.0462 16.1333 81.0906 16.0778 81.1128 16.0333H82.3128C82.3573 15.9889 82.4017 15.9333 82.4462 15.8667C82.4906 15.8 82.535 15.7444 82.5795 15.7H82.6462C82.8684 15.4333 83.1017 15.2111 83.3462 15.0333H80.6128C80.7684 14.9222 80.9351 14.8111 81.1128 14.7C81.2684 14.5667 81.4351 14.4556 81.6128 14.3667H83.4462L83.7462 14.2H84.6795C84.7239 14.1556 84.7795 14.1222 84.8462 14.1C84.9128 14.0778 84.9684 14.0556 85.0128 14.0333H85.4128C85.8128 13.8333 86.2462 13.6667 86.7128 13.5333H88.7462C89.0573 13.4222 89.3684 13.3333 89.6795 13.2667C90.0128 13.1778 90.3573 13.1 90.7128 13.0333H89.8795L90.4128 12.9333L93.9462 12.3667V12.2H95.6462V12.0333H92.4462V11.8667H94.3462C94.3462 11.7556 94.3462 11.6667 94.3462 11.6C94.3462 11.5111 94.335 11.4333 94.3128 11.3667C94.2906 11.1667 94.2128 11 94.0795 10.8667H93.5128C93.4906 10.8444 93.4351 10.8111 93.3462 10.7667L93.1128 10.8667H92.5462C92.4573 10.9333 92.3684 11.0111 92.2795 11.1C92.1906 11.1667 92.0906 11.2556 91.9795 11.3667H92.0128C91.7684 11.6111 91.4573 11.7333 91.0795 11.7333H85.4128C85.0795 11.7333 84.8573 11.6111 84.7462 11.3667H84.7128C84.6462 11.2556 84.6239 11.1333 84.6462 11V10.8667H85.1795C85.2017 10.8222 85.2128 10.7667 85.2128 10.7H83.0795C83.0795 10.6111 83.1017 10.5 83.1462 10.3667H87.9462C87.9462 10.3444 87.9684 10.2889 88.0128 10.2H85.0462C85.1128 9.97778 85.2128 9.75556 85.3462 9.53333H85.9128C85.9795 9.42222 86.0573 9.31111 86.1462 9.2C86.235 9.08889 86.3239 8.97778 86.4128 8.86666H83.9128L84.2128 8.53333H89.0462C89.135 8.44444 89.2239 8.36667 89.3128 8.3C89.4239 8.21111 89.5239 8.12222 89.6128 8.03333H86.5462L86.7462 7.86667H85.8128C85.9239 7.77778 86.0462 7.7 86.1795 7.63333C86.3128 7.54444 86.4462 7.45555 86.5795 7.36667H88.1462C88.6128 7.1 89.1017 6.87778 89.6128 6.7H89.8462C90.4462 6.47778 91.1128 6.31111 91.8462 6.2C92.6017 6.06667 93.4239 6 94.3128 6C96.135 6 97.6795 6.23333 98.9462 6.7H98.6795C98.9239 6.78889 99.1573 6.88889 99.3795 7C99.6239 7.11111 99.8573 7.23333 100.079 7.36667H98.5128L99.2128 7.86667H100.146L100.346 8.03333H103.413L103.913 8.53333H99.0795C99.1239 8.57778 99.1684 8.63333 99.2128 8.7C99.2573 8.76667 99.3017 8.82222 99.3462 8.86666H101.813C101.902 8.95555 101.979 9.06667 102.046 9.2C102.135 9.31111 102.202 9.42222 102.246 9.53333H101.713L102.013 10.2H104.979C105.024 10.2889 105.046 10.3444 105.046 10.3667H100.246C100.291 10.4111 100.313 10.4667 100.313 10.5333C100.335 10.6 100.357 10.6556 100.379 10.7H101.479C101.479 10.7222 101.479 10.7444 101.479 10.7667C101.502 10.7889 101.513 10.8222 101.513 10.8667H102.079L102.279 11.8667H100.346C100.346 11.8889 100.346 11.9111 100.346 11.9333C100.368 11.9556 100.379 11.9889 100.379 12.0333H103.579V12.2H101.913V12.3667C101.935 12.4778 101.946 12.5889 101.946 12.7C101.946 12.8111 101.946 12.9222 101.946 13.0333H102.813V13.5333H100.746V14.0333H100.379V14.2H99.4795V14.3667H97.6462V15.0333H100.379V15.7H100.313V16.0333H99.1128V16.2H99.8462V16.5333H102.046V17.0333H101.646V17.3667H101.913V18.0333H101.713V19.0333H100.613V19.7H101.879V20.2H102.046V20.8667H102.346V21.0333H102.613V21.5333H101.579V21.8667H101.379ZM91.7128 10.6667C91.5573 10.6667 91.4462 10.6778 91.3795 10.7H92.0795C92.0128 10.6778 91.8906 10.6667 91.7128 10.6667ZM91.9462 16.4667L91.6462 16.5333H91.9462V16.4667ZM90.8128 17.3667H91.7462C91.5017 17.5444 91.3795 17.7667 91.3795 18.0333H90.3795V18.1333C90.3795 18.3556 90.4573 18.5444 90.6128 18.7C90.7239 18.8556 90.9462 18.9667 91.2795 19.0333H92.0795C92.4128 18.9667 92.7017 18.8556 92.9462 18.7C93.1462 18.5222 93.335 18.3 93.5128 18.0333H93.6795C93.7239 17.9222 93.7684 17.8222 93.8128 17.7333C93.8573 17.6222 93.8906 17.5 93.9128 17.3667H93.6462C93.6462 17.3222 93.6462 17.2889 93.6462 17.2667C93.6684 17.2444 93.6795 17.2222 93.6795 17.2H93.7128V17.0333H94.1128C94.135 16.9444 94.1462 16.8667 94.1462 16.8C94.1462 16.7111 94.1462 16.6222 94.1462 16.5333H93.5795L91.9462 16.9C91.8573 16.9222 91.7684 16.9444 91.6795 16.9667C91.6128 16.9889 91.5462 17.0111 91.4795 17.0333C91.4128 17.0556 91.3462 17.0778 91.2795 17.1C91.2128 17.1222 91.1573 17.1556 91.1128 17.2H91.0795C91.035 17.2222 90.9906 17.2444 90.9462 17.2667C90.9017 17.2889 90.8573 17.3222 90.8128 17.3667ZM90.9795 19.0333H90.1462C90.235 19.0556 90.3684 19.0667 90.5462 19.0667C90.6128 19.0667 90.6795 19.0667 90.7462 19.0667C90.835 19.0667 90.9128 19.0556 90.9795 19.0333Z" fill="white"/>
<path d="M124.1 7.7H121.4L121.333 7.86667H124.133L123.833 8.53333H122.533L122.266 9.2H122.966L122.7 9.86667H121.6L121.466 10.2H122.3L122.166 10.5333H121.966L121.9 10.7H121.866L121.633 11.2H121.966L121.766 11.7H119.4L119.233 12.0333H121.066L121 12.2H118L117.866 12.5333H117.6L117.3 13.2H121.7L121.633 13.3667H120.866L120.7 13.7H120.933L120.866 13.8667H120.666L120.366 14.5333L120.166 15.0333H119.766L119.533 15.5333H119.8L119.566 16.0333H119.666L119.6 16.2H119.566L119.433 16.5333H119.6L119.466 16.8667H119.3L119.166 17.2H119.133L118.933 17.7H119.133L119.066 17.8667H118.866L118.633 18.3667H117.4L117.1 19.0333H117.9L117.766 19.3667H118.733L118.466 20.0333H117.366L117.233 20.3667H117.766L117.5 21.0333H117.333L117.033 21.7H117.266L117.133 22.0333H117.066L116.9 22.3667H116.833L116.6 22.8667H116.7L116.466 23.3667H116.2L115.966 23.8667H115.5L115.333 24.2H117.766L117.5 24.8667H115.033L114.733 25.5333H116.1L115.8 26.2H117.166L116.866 26.8667H116.933L116.666 27.5333H112.466L112.3 27.8667H113.266L113.133 28.2H114.6L114.433 28.5333H111.1L110.933 28.8667H112.666L112.533 29.2C112.422 29.4889 112.233 29.7111 111.966 29.8667H110.566C110.389 29.9556 110.2 30 110 30H104.533C104.333 30 104.189 29.9556 104.1 29.8667H105.466C105.266 29.7111 105.166 29.5222 105.166 29.3V29.2C105.166 29.1111 105.178 29.0333 105.2 28.9667L105.233 28.8667H103.5L103.666 28.5333H107L107.133 28.2H105.666L105.8 27.8667H104.866L105 27.5333H109.2L109.5 26.8667H109.433L109.7 26.2H108.333L108.6 25.5333H107.266L107.533 24.8667H110L110.266 24.2H107.833L107.966 23.8667H108.466L108.666 23.3667H108.966L109.166 22.8667H109.1L109.233 22.5667L109.133 22.3667H109.2L109.066 22.0333H109.166L109 21.7H108.766L108.5 21.0333H108.666L108.366 20.3667H107.833L107.666 20.0333H108.766L108.5 19.3667H107.5L107.366 19.0333H106.566L106.3 18.3667H107.533L107.333 17.8667H107.533L107.466 17.7H107.233L107.033 17.2H107.066L106.933 16.8667H107.066L106.933 16.5333H106.733L106.6 16.2H106.633L106.566 16.0333H106.466L106.266 15.5333H106.033L105.8 15.0333H106.2L106 14.5333H105.533L105.266 13.8667H105.633L105.533 13.7H106.066L105.9 13.3667H105.066L104.966 13.2H104.933L104.633 12.5333H100.466L100.3 12.2H102.8L102.733 12.0333H102.866L102.7 11.7H104.366L104.133 11.2H104.433L104.233 10.7H104.3L104.233 10.5333H104.2L104.066 10.2H103.966L103.8 9.86667H104.133L103.866 9.2H102.966L102.666 8.53333H103.366L103.1 7.86667H101.3L101.233 7.7H103.866L103.733 7.36667C103.711 7.3 103.7 7.22222 103.7 7.13333C103.7 7.08889 103.711 7.05555 103.733 7.03333H104.2C104.311 6.56667 104.578 6.33333 105 6.33333H110.633C110.944 6.33333 111.178 6.41111 111.333 6.56667C111.489 6.7 111.6 6.85556 111.666 7.03333H111.2C111.2 7.05555 111.2 7.07778 111.2 7.1C111.222 7.1 111.233 7.11111 111.233 7.13333L111.333 7.36667L111.433 7.7H108.766L108.833 7.86667H110.633L110.9 8.53333H110.2L110.433 9.2H111.333L111.566 9.86667H111.233L111.366 10.2H111.466L111.666 10.7H111.6L111.766 11.2H111.5L111.666 11.7H110.033L110.133 12.0333H110L110.066 12.2H107.6L107.7 12.5333H110.633L110.766 12.2H113.766L113.833 12.0333H112L112.133 11.7H114.466L114.666 11.2H114.333L114.533 10.7H114.566L114.633 10.5333H114.833L114.933 10.2H114.1L114.233 9.86667H115.3L115.566 9.2H114.833L115.1 8.53333H116.4L116.633 7.86667H113.833L113.9 7.7H116.6L116.733 7.36667L116.8 7.13333C116.822 7.11111 116.833 7.07778 116.833 7.03333H115.733C115.844 6.85556 115.978 6.7 116.133 6.56667C116.311 6.41111 116.544 6.33333 116.833 6.33333H122.4C122.6 6.33333 122.778 6.41111 122.933 6.56667C123.089 6.7 123.166 6.85556 123.166 7.03333H124.266C124.266 7.16667 124.255 7.27778 124.233 7.36667L124.1 7.7ZM114.466 13.3667L114.5 13.2H112.2L112.266 13.3667H113.1L113.233 13.7H112.733L112.8 13.8667H112.433L112.666 14.5333H113.133L113.2 14.7333L113.266 14.5333L113.5 13.8667H113.733L113.8 13.7H113.566L113.666 13.3667H114.466Z" fill="white"/>
</svg>
