<svg width="834" height="200" viewBox="0 0 834 200" fill="none" xmlns="http://www.w3.org/2000/svg">
<path d="M173 58H170.556V61.3333H175.667V62.4444H173.667L173 66.8889H175.444C175.296 67.1852 175.222 67.5556 175.222 68H172.111C171.963 68.7407 171.815 69.4815 171.667 70.2222C171.519 70.963 171.296 71.7037 171 72.4444C171 73.037 170.852 73.7778 170.556 74.6667H168.333L167 78H166.778C166.63 78.7407 166.333 79.4815 165.889 80.2222C165.444 80.963 165.074 81.7037 164.778 82.4444H165.222L164.556 83.5555H166.556C166.111 84.2963 165.667 85.037 165.222 85.7778C164.778 86.5185 164.259 87.2592 163.667 88H165.222C164.63 88.7407 163.963 89.4815 163.222 90.2222C162.63 90.963 161.963 91.7037 161.222 92.4444H160.778C159.889 93.1852 159 93.9259 158.111 94.6667C157.37 95.4074 156.482 96.1481 155.445 96.8889H154.111C152.926 97.6296 151.667 98.3704 150.333 99.1111C149.148 99.8519 147.889 100.593 146.556 101.333H147.222C146.926 101.481 146.556 101.63 146.111 101.778C145.667 101.926 145.296 102.148 145 102.444H144.778C141.963 103.778 138.852 104.889 135.444 105.778C133.815 106.222 132.111 106.667 130.333 107.111C128.556 107.407 126.778 107.704 125 108H124.778C118.852 108.889 112.556 109.333 105.889 109.333H90.3334V111.333H91.8889V115.778H94.5556V116.889H89.2223V119.111H91.2223V122.444H85.6667V123.556H92.5556V128H90.5556V133.556H91.4445V136.889H88.7778V141.333H87.6667V143.556H95V146.889H88.7778V151.333H93V151.778C93 152.518 92.926 153.111 92.7778 153.556H91.4445C91.4445 153.704 91.2963 154.074 91 154.667H91.6667C91.5186 154.963 91.2223 155.333 90.7778 155.778H91C90.4075 156.37 89.963 156.741 89.6667 156.889H89.8889C89.1482 157.481 88.1112 157.778 86.7778 157.778H41.0001C39.6667 157.778 38.6297 157.481 37.8889 156.889H37.4445C37.1482 156.741 36.7038 156.37 36.1112 155.778C35.963 155.481 35.8149 155.259 35.6667 155.111C35.5186 154.963 35.4445 154.815 35.4445 154.667H34.7778C34.4815 154.074 34.3334 153.704 34.3334 153.556H35.4445C35.2963 153.111 35.2223 152.518 35.2223 151.778V151.333H31.0001V146.889H37.2223V143.556H29.8889V141.333H31.0001V136.889H33.6667V133.556H32.7778V128H34.7778V123.556H27.8889V122.444H33.4445V119.111H31.4445V116.889H36.7778V115.778H34.1112V111.333H32.5556V108H32.7778V101.333H32.3334V96.8889H33.6667V92.4444H34.3334V88H32.7778V83.5555H30.7778V82.4444H30.3334V78H30.5556V74.6667H32.7778V68H32.1112V66.8889H31.4445V62.4444H33.8889V61.3333H33.0001V58H33.8889V55.7778H33.6667V53.5556H27.4445V49.1111H2.77783V45.7778H14.1112V41.3333H34.3334V39.1111H25.8889V34.6667H20.7778V31.3333H24.1112V30.2222H19.4445V25.7778H36.5556V24.6667H34.3334V21.3333H29.2223V18H22.1112V13.5556H38.1112V10.2222H30.3334V9.11111H28.7778V8H32.7778C32.7778 7.40741 32.926 6.66667 33.2223 5.77778H30.7778C30.926 5.33333 31.1482 4.96296 31.4445 4.66667C31.7408 4.22222 32.0371 3.85185 32.3334 3.55556H45.8889C47.0741 2.66667 48.3334 2.22222 49.6667 2.22222H117C123.519 2.22222 129.519 2.66667 135 3.55556H121.667C123.444 3.85185 125.148 4.22222 126.778 4.66667C128.556 4.96296 130.185 5.33333 131.667 5.77778H134.333C135.519 6.07407 136.63 6.44444 137.667 6.88889C138.852 7.18518 139.963 7.55555 141 8H137C137.445 8.14815 137.889 8.29629 138.333 8.44444C138.778 8.5926 139.222 8.81482 139.667 9.11111H141L143.444 10.2222H151.444L157.222 13.5556H141C142.185 14.1481 143.222 14.8889 144.111 15.7778C145 16.5185 145.889 17.2593 146.778 18H153.889L157.222 21.3333H162.333C162.778 21.9259 163.222 22.5185 163.667 23.1111C164.259 23.5556 164.704 24.0741 165 24.6667H167.222C167.667 25.1111 167.963 25.4815 168.111 25.7778H151C151.444 26.3704 151.889 27.1111 152.333 28C152.778 28.7407 153.222 29.4815 153.667 30.2222H158.333L158.778 31.3333H155.667L157 34.6667H162.333L163.667 39.1111H172.111L172.778 41.3333H152.556C152.852 41.9259 153 42.6667 153 43.5556C153.148 44.2963 153.296 45.037 153.444 45.7778H181.889C182.037 46.3704 182.111 46.963 182.111 47.5556C182.111 48 182.185 48.5185 182.333 49.1111H181.222C181.37 49.8518 181.444 50.5926 181.444 51.3333C181.593 52.0741 181.667 52.8148 181.667 53.5556H173V58ZM117.222 61.3333H112.111L112.778 58H115.222V55.7778C115.222 55.4815 115.222 55.1111 115.222 54.6667C115.222 54.2222 115.148 53.8519 115 53.5556H123.667C123.519 52.8148 123.37 52.0741 123.222 51.3333C123.074 50.4444 122.852 49.7037 122.556 49.1111H123.444C123.148 47.9259 122.407 46.8148 121.222 45.7778H92.7778C91 44.2963 88.8519 43.5556 86.3334 43.5556H70.7778V45.7778H59.4445V49.1111H84.1112V53.5556H90.3334V55.7778H90.5556V58H89.6667V61.3333H90.5556V62.4444H88.1112V66.8889H88.7778V68H89.4445V68.2222H105C105.889 68.2222 106.556 68.1481 107 68H110.111C110.704 67.8519 111.222 67.7037 111.667 67.5555C112.111 67.2592 112.556 67.037 113 66.8889H110.778C112.556 65.8519 113.889 64.3704 114.778 62.4444H116.778C117.074 61.8519 117.222 61.4815 117.222 61.3333Z" fill="white"/>
<path d="M302.129 41.3333V42C302.129 43.3333 301.684 44.5926 300.795 45.7778H331.462C330.425 47.2593 328.869 48 326.795 48H263.24V49.1111H246.351V52.4444H238.795V56.8889H246.351V60.2222H244.351V63.5555H243.462V64.4444H302.573C304.054 64.4444 305.314 64.8889 306.351 65.7778H306.795C307.536 66.3704 308.128 67.1111 308.573 68H307.24C307.684 68.5926 307.906 69.4074 307.906 70.4444V72.4444H307.017V73.5556H312.795V78H307.684V80.2222H309.017V83.5555H309.684V84.6667H311.684V88H308.351V89.1111H297.017V93.5556H294.351V96.8889H311.24V101.333H305.017V104C305.017 104.741 304.943 105.333 304.795 105.778H304.351C303.758 107.407 302.869 108.519 301.684 109.111H297.24C296.499 109.704 295.462 110 294.129 110H235.017V112.444H241.684V114.667H251.684V118H230.795V120.222H249.906V123.556H235.462V124.667H246.573V129.111H240.351V133.556H243.24V134.667H241.906V139.111H245.462V140.222H243.906V141.333H240.795V143.556H243.906V145.778H240.795V149.111H251.24V150.222H258.129V151.778C258.129 151.926 258.054 152.074 257.906 152.222C257.906 152.222 257.906 152.296 257.906 152.444H276.573C276.573 152.889 276.499 153.259 276.351 153.556H245.24C244.943 154.889 244.128 156 242.795 156.889H258.795C258.054 157.481 257.017 157.778 255.684 157.778H213.24C211.906 157.778 210.869 157.481 210.128 156.889H193.906C192.869 156.148 192.054 155.037 191.462 153.556H222.351C222.351 153.111 222.277 152.741 222.129 152.444H203.684V150.222H196.795V149.111H186.351V145.778H189.462V143.556H186.351V141.333H189.462V140.222H191.017V139.111H187.462V134.667H188.795V133.556H185.906V129.111H192.129V124.667H181.017V123.556H195.462V120.222H176.351V118H197.24V114.667H187.24V112.444H180.573V109.111H185.017V105.778H185.462V101.333H191.684V96.8889H174.795V93.5556H177.462V89.1111H188.795V88H192.129V84.6667H190.129V83.5555H189.462V80.2222H188.129V78H193.24V73.5556H187.462V72.4444H188.351V68H189.462V65.7778H189.017V63.5555H189.906V60.2222H191.906V56.8889H184.351V52.4444H191.906V49.1111H208.795V45.7778H178.129V41.3333H211.906V38H179.24V35.7778H180.129V33.5556H199.017V29.1111H190.795V24.6667H194.573V20.2222H188.795V15.7778H189.462V12.4444H187.462V9.11111H188.573V8.22222C188.573 7.62962 188.647 7.18518 188.795 6.88889H179.906C180.054 6.14815 180.277 5.55556 180.573 5.11111C181.017 4.51852 181.462 4 181.906 3.55556H180.129C181.314 2.66667 182.573 2.22222 183.906 2.22222H295.906C297.388 2.22222 298.647 2.66667 299.684 3.55556H301.462C302.499 4.2963 303.24 5.40741 303.684 6.88889H312.351C312.499 7.18518 312.573 7.62962 312.573 8.22222V9.11111H311.462V12.4444H313.462V15.7778H312.795V20.2222H318.573V24.6667H314.795V29.1111H323.017V33.5556H304.128V35.7778H303.24V38H335.906V41.3333H302.129Z" fill="white"/>
<path d="M473.347 58H470.903V61.3333H476.014V62.4444H474.014L473.347 66.8889H475.792C475.644 67.1852 475.569 67.5556 475.569 68H472.458C472.31 68.7407 472.162 69.4815 472.014 70.2222C471.866 70.963 471.643 71.7037 471.347 72.4444C471.347 73.037 471.199 73.7778 470.903 74.6667H468.681L467.347 78H467.125C466.977 78.7407 466.681 79.4815 466.236 80.2222C465.792 80.963 465.421 81.7037 465.125 82.4444H465.569L464.903 83.5555H466.903C466.458 84.2963 466.014 85.037 465.569 85.7778C465.125 86.5185 464.606 87.2592 464.014 88H465.569C464.977 88.7407 464.31 89.4815 463.569 90.2222C462.977 90.963 462.31 91.7037 461.569 92.4444H461.125C460.236 93.1852 459.347 93.9259 458.458 94.6667C457.718 95.4074 456.829 96.1481 455.792 96.8889H454.458C453.273 97.6296 452.014 98.3704 450.681 99.1111C449.495 99.8519 448.236 100.593 446.903 101.333H447.569C447.273 101.481 446.903 101.63 446.458 101.778C446.014 101.926 445.644 102.148 445.347 102.444H445.125C442.31 103.778 439.199 104.889 435.792 105.778C434.162 106.222 432.458 106.667 430.681 107.111C428.903 107.407 427.125 107.704 425.347 108H425.125C419.199 108.889 412.903 109.333 406.236 109.333H390.681V111.333H392.236V115.778H394.903V116.889H389.569V119.111H391.569V122.444H386.014V123.556H392.903V128H390.903V133.556H391.792V136.889H389.125V141.333H388.014V143.556H395.347V146.889H389.125V151.333H393.347V151.778C393.347 152.518 393.273 153.111 393.125 153.556H391.792C391.792 153.704 391.644 154.074 391.347 154.667H392.014C391.866 154.963 391.569 155.333 391.125 155.778H391.347C390.755 156.37 390.31 156.741 390.014 156.889H390.236C389.495 157.481 388.458 157.778 387.125 157.778H341.347C340.014 157.778 338.977 157.481 338.236 156.889H337.792C337.495 156.741 337.051 156.37 336.458 155.778C336.31 155.481 336.162 155.259 336.014 155.111C335.866 154.963 335.792 154.815 335.792 154.667H335.125C334.829 154.074 334.681 153.704 334.681 153.556H335.792C335.644 153.111 335.569 152.518 335.569 151.778V151.333H331.347V146.889H337.569V143.556H330.236V141.333H331.347V136.889H334.014V133.556H333.125V128H335.125V123.556H328.236V122.444H333.792V119.111H331.792V116.889H337.125V115.778H334.458V111.333H332.903V108H333.125V101.333H332.681V96.8889H334.014V92.4444H334.681V88H333.125V83.5555H331.125V82.4444H330.681V78H330.903V74.6667H333.125V68H332.458V66.8889H331.792V62.4444H334.236V61.3333H333.347V58H334.236V55.7778H334.014V53.5556H327.792V49.1111H303.125V45.7778H314.458V41.3333H334.681V39.1111H326.236V34.6667H321.125V31.3333H324.458V30.2222H319.792V25.7778H336.903V24.6667H334.681V21.3333H329.569V18H322.458V13.5556H338.458V10.2222H330.681V9.11111H329.125V8H333.125C333.125 7.40741 333.273 6.66667 333.569 5.77778H331.125C331.273 5.33333 331.495 4.96296 331.792 4.66667C332.088 4.22222 332.384 3.85185 332.681 3.55556H346.236C347.421 2.66667 348.681 2.22222 350.014 2.22222H417.347C423.866 2.22222 429.866 2.66667 435.347 3.55556H422.014C423.792 3.85185 425.495 4.22222 427.125 4.66667C428.903 4.96296 430.532 5.33333 432.014 5.77778H434.681C435.866 6.07407 436.977 6.44444 438.014 6.88889C439.199 7.18518 440.31 7.55555 441.347 8H437.347C437.792 8.14815 438.236 8.29629 438.681 8.44444C439.125 8.5926 439.569 8.81482 440.014 9.11111H441.347L443.792 10.2222H451.792L457.569 13.5556H441.347C442.532 14.1481 443.569 14.8889 444.458 15.7778C445.347 16.5185 446.236 17.2593 447.125 18H454.236L457.569 21.3333H462.681C463.125 21.9259 463.569 22.5185 464.014 23.1111C464.606 23.5556 465.051 24.0741 465.347 24.6667H467.569C468.014 25.1111 468.31 25.4815 468.458 25.7778H451.347C451.792 26.3704 452.236 27.1111 452.681 28C453.125 28.7407 453.569 29.4815 454.014 30.2222H458.681L459.125 31.3333H456.014L457.347 34.6667H462.681L464.014 39.1111H472.458L473.125 41.3333H452.903C453.199 41.9259 453.347 42.6667 453.347 43.5556C453.495 44.2963 453.643 45.037 453.792 45.7778H482.236C482.384 46.3704 482.458 46.963 482.458 47.5556C482.458 48 482.532 48.5185 482.681 49.1111H481.569C481.718 49.8518 481.792 50.5926 481.792 51.3333C481.94 52.0741 482.014 52.8148 482.014 53.5556H473.347V58ZM417.569 61.3333H412.458L413.125 58H415.569V55.7778C415.569 55.4815 415.569 55.1111 415.569 54.6667C415.569 54.2222 415.495 53.8519 415.347 53.5556H424.014C423.866 52.8148 423.718 52.0741 423.569 51.3333C423.421 50.4444 423.199 49.7037 422.903 49.1111H423.792C423.495 47.9259 422.755 46.8148 421.569 45.7778H393.125C391.347 44.2963 389.199 43.5556 386.681 43.5556H371.125V45.7778H359.792V49.1111H384.458V53.5556H390.681V55.7778H390.903V58H390.014V61.3333H390.903V62.4444H388.458V66.8889H389.125V68H389.792V68.2222H405.347C406.236 68.2222 406.903 68.1481 407.347 68H410.458C411.051 67.8519 411.569 67.7037 412.014 67.5555C412.458 67.2592 412.903 67.037 413.347 66.8889H411.125C412.903 65.8519 414.236 64.3704 415.125 62.4444H417.125C417.421 61.8519 417.569 61.4815 417.569 61.3333Z" fill="white"/>
<path d="M562.031 71.3333H543.809V72.4444H545.142V76.8889H550.92V79.1111H536.031V82.4444H539.587V83.5555H539.809V86.8889H540.92V88H538.476V89.1111H541.142V90.2222H539.365V92.4444H538.031V95.7778H539.142V96.8889H540.031V98H534.031V100.222H531.587V101.333H529.587V104.667H534.698V105.778H530.92V108H542.253V112.444H531.809V116.889H541.142V121.333H539.587V122.444H541.809V126.889H534.031V129.111H549.142V133.556H536.031V134.667H542.031V138H539.142V142.444H538.253V146.889H539.365V150.222H536.92V151.778C536.92 152.518 536.846 153.111 536.698 153.556H542.698C542.105 155.185 541.216 156.296 540.031 156.889H532.698C531.957 157.481 530.92 157.778 529.587 157.778H489.809C488.476 157.778 487.439 157.481 486.698 156.889H494.031C492.846 156.296 491.957 155.185 491.365 153.556H485.365C485.216 153.111 485.142 152.518 485.142 151.778V150.222H487.587V146.889H486.476V142.444H487.365V138H490.253V134.667H484.253V133.556H497.365V129.111H482.253V126.889H490.031V122.444H487.809V121.333H489.365V116.889H480.031V112.444H490.476V108H479.142V105.778H482.92V104.667H477.809V101.333H479.809V100.222H482.253V98H488.253V96.8889H487.365V95.7778H486.253V92.4444H487.587V90.2222H489.365V89.1111H486.698V88H489.142V86.8889H488.031V83.5555H487.809V82.4444H484.253V79.1111H499.142V76.8889H493.365V72.4444H492.031V71.3333H510.253V70.2222H490.92V66.8889H502.253V63.5555H493.142V62.4444H484.253V58H490.476V56.8889H487.587V55.7778H484.476V52.4444H485.587V51.3333H489.142V46.8889H487.587V44.6667H490.698V36.8889H500.031V35.7778H493.809V32.4444H485.365V31.3333H484.92V29.1111H486.92V26.8889H487.365V25.7778H487.587V22.4444H487.142V21.3333H487.587V20.2222H488.253V16.8889H486.698V13.5556H488.253V12.4444H487.809V8H487.587V6.88889H487.365V6C487.365 5.25926 487.513 4.44445 487.809 3.55556H488.031C489.068 1.18519 490.92 0 493.587 0H533.365C535.735 0 537.587 1.18519 538.92 3.55556H538.698C538.994 4.44445 539.142 5.25926 539.142 6V6.88889H539.365V8H539.587V12.4444H540.031V13.5556H538.476V16.8889H540.031V20.2222H539.365V21.3333H538.92V22.4444H539.365V25.7778H539.142V26.8889H538.698V29.1111H536.698V31.3333H537.142V32.4444H545.587V35.7778H551.809V36.8889H542.476V44.6667H539.365V46.8889H540.92V51.3333H537.365V52.4444H536.253V55.7778H539.365V56.8889H542.253V58H536.031V62.4444H544.92V63.5555H554.031V66.8889H542.698V70.2222H562.031V71.3333Z" fill="white"/>
<path d="M675.863 145.778V148H695.196V151.778C695.196 152.074 695.122 152.296 694.974 152.444H684.529C684.233 154.519 683.27 156 681.641 156.889H679.641C678.9 157.481 677.863 157.778 676.529 157.778H637.641C636.307 157.778 635.27 157.481 634.529 156.889H636.307C634.826 155.852 633.937 154.37 633.641 152.444H644.307V148H635.418C634.678 148.741 633.863 149.481 632.974 150.222C632.233 150.963 631.418 151.704 630.529 152.444H628.085C625.418 154.37 622.752 155.852 620.085 156.889H612.974C611.937 157.333 610.752 157.704 609.418 158C608.233 158.444 606.974 158.815 605.641 159.111H603.863C602.381 159.407 600.826 159.63 599.196 159.778C597.715 159.926 596.159 160 594.529 160C592.752 160 590.974 159.926 589.196 159.778C587.567 159.63 585.937 159.407 584.307 159.111H586.085C584.604 158.815 583.122 158.444 581.641 158C580.307 157.704 578.974 157.333 577.641 156.889H584.529C581.27 155.704 578.307 154.222 575.641 152.444H578.085C577.048 151.704 576.085 150.963 575.196 150.222C574.307 149.481 573.418 148.741 572.529 148H561.418L559.418 145.778C559.27 145.481 559.048 145.111 558.752 144.667C558.455 144.222 558.159 143.852 557.863 143.556H564.529C564.233 142.963 563.863 142.444 563.418 142C563.122 141.407 562.826 140.815 562.529 140.222H560.529C560.529 140.074 560.381 139.704 560.085 139.111H558.085L557.418 138H557.641L556.307 134.667H555.196C555.048 134.074 554.9 133.556 554.752 133.111C554.604 132.519 554.455 131.926 554.307 131.333H545.863C545.418 129.704 545.196 128.222 545.196 126.889H552.529V124.667C552.529 123.926 552.529 123.185 552.529 122.444C552.529 121.556 552.604 120.815 552.752 120.222H559.418C559.567 119.481 559.715 118.741 559.863 118C560.011 117.111 560.159 116.37 560.307 115.778H554.085L554.529 114.667H554.752L555.196 113.556H554.974C555.27 112.963 555.567 112.444 555.863 112C556.159 111.407 556.381 110.815 556.529 110.222H543.418L544.752 108H539.863C540.307 107.556 540.604 107.185 540.752 106.889H548.752C549.048 106.593 549.344 106.222 549.641 105.778C549.937 105.333 550.233 104.963 550.529 104.667H550.974C552.455 102.889 554.011 101.407 555.641 100.222H537.418C538.455 99.4815 539.567 98.7407 540.752 98C541.789 97.1111 542.9 96.3704 544.085 95.7778H556.307L558.307 94.6667H564.529C564.826 94.3704 565.196 94.1481 565.641 94C566.085 93.8519 566.455 93.7037 566.752 93.5556H569.418C572.085 92.2222 574.974 91.1111 578.085 90.2222H591.641C593.715 89.4815 595.789 88.8889 597.863 88.4444C600.085 87.8519 602.381 87.3333 604.752 86.8889H599.196L602.752 86.2222L626.307 82.4444V81.3333H637.641V80.2222H616.307V79.1111H628.974C628.974 78.3704 628.974 77.7778 628.974 77.3333C628.974 76.7407 628.9 76.2222 628.752 75.7778C628.604 74.4444 628.085 73.3333 627.196 72.4444H623.418C623.27 72.2963 622.9 72.0741 622.307 71.7778L620.752 72.4444H616.974C616.381 72.8889 615.789 73.4074 615.196 74C614.604 74.4444 613.937 75.037 613.196 75.7778H613.418C611.789 77.4074 609.715 78.2222 607.196 78.2222H569.418C567.196 78.2222 565.715 77.4074 564.974 75.7778H564.752C564.307 75.037 564.159 74.2222 564.307 73.3333V72.4444H567.863C568.011 72.1481 568.085 71.7778 568.085 71.3333H553.863C553.863 70.7407 554.011 70 554.307 69.1111H586.307C586.307 68.963 586.455 68.5926 586.752 68H566.974C567.418 66.5185 568.085 65.037 568.974 63.5555H572.752C573.196 62.8148 573.715 62.0741 574.307 61.3333C574.9 60.5926 575.492 59.8518 576.085 59.1111H559.418L561.418 56.8889H593.641C594.233 56.2963 594.826 55.7778 595.418 55.3333C596.159 54.7407 596.826 54.1481 597.418 53.5556H576.974L578.307 52.4444H572.085C572.826 51.8519 573.641 51.3333 574.529 50.8889C575.418 50.2963 576.307 49.7037 577.196 49.1111H587.641C590.752 47.3333 594.011 45.8518 597.418 44.6667H598.974C602.974 43.1852 607.418 42.0741 612.307 41.3333C617.344 40.4444 622.826 40 628.752 40C640.9 40 651.196 41.5555 659.641 44.6667H657.863C659.492 45.2593 661.048 45.9259 662.529 46.6667C664.159 47.4074 665.715 48.2222 667.196 49.1111H656.752L661.418 52.4444H667.641L668.974 53.5556H689.418L692.752 56.8889H660.529C660.826 57.1852 661.122 57.5556 661.418 58C661.715 58.4444 662.011 58.8148 662.307 59.1111H678.752C679.344 59.7037 679.863 60.4444 680.307 61.3333C680.9 62.0741 681.344 62.8148 681.641 63.5555H678.085L680.085 68H699.863C700.159 68.5926 700.307 68.963 700.307 69.1111H668.307C668.604 69.4074 668.752 69.7778 668.752 70.2222C668.9 70.6667 669.048 71.037 669.196 71.3333H676.529C676.529 71.4815 676.529 71.6296 676.529 71.7778C676.678 71.9259 676.752 72.1481 676.752 72.4444H680.529L681.863 79.1111H668.974C668.974 79.2593 668.974 79.4074 668.974 79.5555C669.122 79.7037 669.196 79.9259 669.196 80.2222H690.529V81.3333H679.418V82.4444C679.567 83.1852 679.641 83.9259 679.641 84.6667C679.641 85.4074 679.641 86.1481 679.641 86.8889H685.418V90.2222H671.641V93.5556H669.196V94.6667H663.196V95.7778H650.974V100.222H669.196V104.667H668.752V106.889H660.752V108H665.641V110.222H680.307V113.556H677.641V115.778H679.418V120.222H678.085V126.889H670.752V131.333H679.196V134.667H680.307V139.111H682.307V140.222H684.085V143.556H677.196V145.778H675.863ZM611.418 71.1111C610.381 71.1111 609.641 71.1852 609.196 71.3333H613.863C613.418 71.1852 612.604 71.1111 611.418 71.1111ZM612.974 109.778L610.974 110.222H612.974V109.778ZM605.418 115.778H611.641C610.011 116.963 609.196 118.444 609.196 120.222H602.529V120.889C602.529 122.37 603.048 123.63 604.085 124.667C604.826 125.704 606.307 126.444 608.529 126.889H613.863C616.085 126.444 618.011 125.704 619.641 124.667C620.974 123.481 622.233 122 623.418 120.222H624.529C624.826 119.481 625.122 118.815 625.418 118.222C625.715 117.481 625.937 116.667 626.085 115.778H624.307C624.307 115.481 624.307 115.259 624.307 115.111C624.455 114.963 624.529 114.815 624.529 114.667H624.752V113.556H627.418C627.567 112.963 627.641 112.444 627.641 112C627.641 111.407 627.641 110.815 627.641 110.222H623.863L612.974 112.667C612.381 112.815 611.789 112.963 611.196 113.111C610.752 113.259 610.307 113.407 609.863 113.556C609.418 113.704 608.974 113.852 608.529 114C608.085 114.148 607.715 114.37 607.418 114.667H607.196C606.9 114.815 606.604 114.963 606.307 115.111C606.011 115.259 605.715 115.481 605.418 115.778ZM606.529 126.889H600.974C601.567 127.037 602.455 127.111 603.641 127.111C604.085 127.111 604.529 127.111 604.974 127.111C605.567 127.111 606.085 127.037 606.529 126.889Z" fill="white"/>
<path d="M827.332 51.3333H809.332L808.887 52.4444H827.554L825.554 56.8889H816.887L815.109 61.3333H819.776L817.998 65.7778H810.665L809.776 68H815.332L814.443 70.2222H813.109L812.665 71.3333H812.443L810.887 74.6667H813.109L811.776 78H795.998L794.887 80.2222H807.109L806.665 81.3333H786.665L785.776 83.5555H783.998L781.998 88H811.332L810.887 89.1111H805.776L804.665 91.3333H806.22L805.776 92.4444H804.443L802.443 96.8889L801.109 100.222H798.443L796.887 103.556H798.665L797.109 106.889H797.776L797.332 108H797.109L796.22 110.222H797.332L796.443 112.444H795.332L794.443 114.667H794.22L792.887 118H794.22L793.776 119.111H792.443L790.887 122.444H782.665L780.665 126.889H785.998L785.109 129.111H791.554L789.776 133.556H782.443L781.554 135.778H785.109L783.331 140.222H782.22L780.22 144.667H781.776L780.887 146.889H780.443L779.331 149.111H778.887L777.332 152.444H777.998L776.443 155.778H774.665L773.109 159.111H769.998L768.887 161.333H785.109L783.331 165.778H766.887L764.887 170.222H773.998L771.998 174.667H781.109L779.109 179.111H779.554L777.776 183.556H749.776L748.665 185.778H755.109L754.22 188H763.998L762.887 190.222H740.665L739.554 192.444H751.109L750.22 194.667C749.48 196.593 748.22 198.074 746.443 199.111H737.109C735.924 199.704 734.665 200 733.332 200H696.887C695.554 200 694.591 199.704 693.998 199.111H703.109C701.776 198.074 701.109 196.815 701.109 195.333V194.667C701.109 194.074 701.183 193.556 701.332 193.111L701.554 192.444H689.998L691.109 190.222H713.332L714.22 188H704.443L705.332 185.778H699.109L699.998 183.556H727.998L729.998 179.111H729.554L731.332 174.667H722.221L723.998 170.222H715.109L716.887 165.778H733.332L735.109 161.333H718.887L719.776 159.111H723.109L724.443 155.778H726.443L727.776 152.444H727.332L728.22 150.444L727.554 149.111H727.998L727.109 146.889H727.776L726.665 144.667H725.109L723.332 140.222H724.443L722.443 135.778H718.887L717.776 133.556H725.109L723.332 129.111H716.665L715.776 126.889H710.443L708.665 122.444H716.887L715.554 119.111H716.887L716.443 118H714.887L713.554 114.667H713.776L712.887 112.444H713.776L712.887 110.222H711.554L710.665 108H710.887L710.443 106.889H709.776L708.443 103.556H706.887L705.332 100.222H707.998L706.665 96.8889H703.554L701.776 92.4444H704.22L703.554 91.3333H707.109L705.998 89.1111H700.443L699.776 88H699.554L697.554 83.5555H669.776L668.665 81.3333H685.332L684.887 80.2222H685.776L684.665 78H695.776L694.22 74.6667H696.22L694.887 71.3333H695.332L694.887 70.2222H694.665L693.776 68H693.109L691.998 65.7778H694.22L692.443 61.3333H686.443L684.443 56.8889H689.109L687.332 52.4444H675.332L674.887 51.3333H692.443L691.554 49.1111C691.406 48.6667 691.332 48.1482 691.332 47.5556C691.332 47.2593 691.406 47.037 691.554 46.8889H694.665C695.406 43.7778 697.183 42.2222 699.998 42.2222H737.554C739.628 42.2222 741.183 42.7407 742.22 43.7778C743.257 44.6667 743.998 45.7037 744.443 46.8889H741.332C741.332 47.037 741.332 47.1852 741.332 47.3333C741.48 47.3333 741.554 47.4074 741.554 47.5556L742.22 49.1111L742.887 51.3333H725.109L725.554 52.4444H737.554L739.332 56.8889H734.665L736.22 61.3333H742.22L743.776 65.7778H741.554L742.443 68H743.109L744.443 71.3333H743.998L745.109 74.6667H743.332L744.443 78H733.554L734.22 80.2222H733.332L733.776 81.3333H717.332L717.998 83.5555H737.554L738.443 81.3333H758.443L758.887 80.2222H746.665L747.554 78H763.109L764.443 74.6667H762.22L763.554 71.3333H763.776L764.22 70.2222H765.554L766.22 68H760.665L761.554 65.7778H768.665L770.443 61.3333H765.554L767.332 56.8889H775.998L777.554 52.4444H758.887L759.332 51.3333H777.332L778.22 49.1111L778.665 47.5556C778.813 47.4074 778.887 47.1852 778.887 46.8889H771.554C772.294 45.7037 773.183 44.6667 774.22 43.7778C775.406 42.7407 776.961 42.2222 778.887 42.2222H815.998C817.332 42.2222 818.517 42.7407 819.554 43.7778C820.591 44.6667 821.109 45.7037 821.109 46.8889H828.443C828.443 47.7778 828.369 48.5185 828.22 49.1111L827.332 51.3333ZM763.109 89.1111L763.332 88H747.998L748.443 89.1111H753.998L754.887 91.3333H751.554L751.998 92.4444H749.554L751.109 96.8889H754.22L754.665 98.2222L755.109 96.8889L756.665 92.4444H758.22L758.665 91.3333H757.109L757.776 89.1111H763.109Z" fill="white"/>
</svg>
