<svg width="24" height="24" viewBox="0 0 24 24" fill="none" xmlns="http://www.w3.org/2000/svg">
<g clip-path="url(#clip0_573_6750)">
<path d="M2.68085 20.0003C2.40875 20.7993 3.18779 21.5552 3.9782 21.2591L13.5812 17.6625C14.2528 17.411 14.4491 16.555 13.9542 16.036L7.78081 9.56207C7.26257 9.01861 6.35258 9.21895 6.11049 9.9298L2.68085 20.0003Z" fill="white"/>
<path d="M13.1187 12.2381C13.3993 12.5324 13.869 12.5324 14.1496 12.2381L18.8245 7.33559C19.2795 6.85848 20.013 6.85848 20.468 7.33559L20.5003 7.3695C20.7809 7.66381 21.2506 7.66381 21.5313 7.3695C21.7937 7.09433 21.7937 6.66157 21.5313 6.38639L21.4522 6.30346C20.4587 5.26159 18.8338 5.26159 17.8403 6.30346L13.1187 11.255C12.8563 11.5301 12.8563 11.9629 13.1187 12.2381Z" fill="white"/>
<path d="M9.48361 7.27814L9.40452 7.36107C9.14212 7.63625 9.14212 8.06901 9.40452 8.34418C9.68517 8.63849 10.1548 8.63849 10.4355 8.34418L10.4678 8.31027C11.4613 7.2684 11.4613 5.56441 10.4678 4.52253L10.4404 4.49373C10.1575 4.19708 9.68371 4.19819 9.40222 4.49616C9.14077 4.77293 9.14179 5.20594 9.40453 5.48147L9.48361 5.5644C9.92929 6.03179 9.92929 6.81076 9.48361 7.27814Z" fill="white"/>
<path d="M15.9833 12.1457L14.9758 13.2023C14.7134 13.4775 14.7134 13.9103 14.9758 14.1854C15.2564 14.4797 15.7261 14.4797 16.0067 14.1854L16.9676 13.1778C17.4225 12.7007 18.1561 12.7007 18.611 13.1778L19.5904 14.2049C19.8711 14.4992 20.3408 14.4992 20.6214 14.2049C20.8838 13.9297 20.8838 13.497 20.6214 13.2218L19.5952 12.1457C18.5925 11.1038 16.9769 11.1038 15.9833 12.1457Z" fill="white"/>
<path d="M14.126 6.3038L11.2614 9.30788C10.999 9.58305 10.999 10.0158 11.2614 10.291C11.5421 10.5853 12.0118 10.5853 12.2924 10.291L15.1103 7.33594C16.1038 6.29407 16.1038 4.59007 15.1103 3.5482L14.1494 2.54058C13.8688 2.24627 13.3991 2.24627 13.1184 2.54058C12.856 2.81576 12.856 3.24851 13.1184 3.52369L14.126 4.58034C14.5717 5.05745 14.5717 5.83642 14.126 6.3038Z" fill="white"/>
</g>
<defs>
<clipPath id="clip0_573_6750">
<rect width="24" height="24" fill="white"/>
</clipPath>
</defs>
</svg>
