<svg width="24" height="24" viewBox="0 0 24 24" fill="none" xmlns="http://www.w3.org/2000/svg">
<path fill-rule="evenodd" clip-rule="evenodd" d="M12.8607 9.12685C13.1316 8.85994 13.548 8.79108 13.8617 9.00609C14.0896 9.16228 14.3075 9.33885 14.5128 9.53584C16.5337 11.4745 16.5715 14.656 14.5972 16.6421L10.7744 20.4879C8.80012 22.4739 5.56144 22.5124 3.54058 20.5738C1.51971 18.6352 1.48192 15.4536 3.45617 13.4675L5.06373 11.8503C5.451 11.4607 6.08005 11.4566 6.47248 11.841C6.86901 12.2294 6.87325 12.8664 6.48193 13.2601L4.89945 14.8521C3.70392 16.0548 3.7268 17.9814 4.95056 19.1554C6.17433 20.3293 8.13555 20.306 9.33109 19.1033L13.154 15.2576C14.3495 14.0549 14.3266 12.1282 13.1029 10.9543C13.0987 10.9503 13.0946 10.9464 13.0905 10.9425C12.5983 10.4754 12.3773 9.60305 12.8607 9.12685Z" fill="white"/>
<path fill-rule="evenodd" clip-rule="evenodd" d="M11.263 14.9864C10.9996 15.2459 10.5964 15.3164 10.287 15.1138C10.022 14.9404 9.76965 14.7398 9.53393 14.512C7.52031 12.566 7.48237 9.37264 9.4492 7.37939L13.2577 3.51977C15.2245 1.52653 18.4513 1.48819 20.4649 3.43415C22.4785 5.38011 22.5164 8.57347 20.5496 10.5667L19.3038 11.8293C18.9149 12.2234 18.2797 12.2265 17.887 11.8361C17.4964 11.4478 17.4934 10.8167 17.8802 10.4246L19.1115 9.17687C20.3025 7.96987 20.2795 6.03614 19.0601 4.85777C17.8408 3.6794 15.8868 3.70261 14.6958 4.90962L10.8874 8.76924C9.69636 9.97624 9.71933 11.91 10.9387 13.0883C10.9604 13.1094 10.9824 13.13 11.0046 13.1503C11.511 13.612 11.7512 14.5054 11.263 14.9864Z" fill="white"/>
</svg>
