<svg width="24" height="24" viewBox="0 0 24 24" fill="none" xmlns="http://www.w3.org/2000/svg">
<g clip-path="url(#clip0_573_6782)">
<path d="M6 19C6 20.1 6.9 21 8 21H16C17.1 21 18 20.1 18 19V7H6V19ZM8.81522 12.2336C8.61917 12.0384 8.6188 11.7212 8.81439 11.5256L9.51728 10.8227C9.71221 10.6278 10.0282 10.6274 10.2236 10.8219L12 12.59L13.7664 10.8236C13.9617 10.6283 14.2783 10.6283 14.4736 10.8236L15.1764 11.5264C15.3717 11.7217 15.3717 12.0383 15.1764 12.2336L13.41 14L15.1764 15.7664C15.3717 15.9617 15.3717 16.2783 15.1764 16.4736L14.4736 17.1764C14.2783 17.3717 13.9617 17.3717 13.7664 17.1764L12 15.41L10.2336 17.1764C10.0383 17.3717 9.72171 17.3717 9.52645 17.1764L8.82355 16.4736C8.62829 16.2783 8.62829 15.9617 8.82355 15.7664L10.59 14L8.81522 12.2336ZM15.5 4L14.5 3H9.5L8.5 4H5V6H19V4H15.5Z" fill="white"/>
</g>
<defs>
<clipPath id="clip0_573_6782">
<rect width="24" height="24" fill="white"/>
</clipPath>
</defs>
</svg>
