<svg width="24" height="24" viewBox="0 0 24 24" fill="none" xmlns="http://www.w3.org/2000/svg">
<path fill-rule="evenodd" clip-rule="evenodd" d="M12 14.8571C13.578 14.8571 14.8571 13.578 14.8571 12C14.8571 10.422 13.578 9.14286 12 9.14286C10.422 9.14286 9.14286 10.422 9.14286 12C9.14286 13.578 10.422 14.8571 12 14.8571ZM12 16C14.2091 16 16 14.2091 16 12C16 9.79086 14.2091 8 12 8C9.79086 8 8 9.79086 8 12C8 14.2091 9.79086 16 12 16Z" fill="white" stroke="white" stroke-width="0.5"/>
<path fill-rule="evenodd" clip-rule="evenodd" d="M11.4475 3.81836C10.8225 5.8601 8.49107 6.8258 6.60536 5.82406C6.10214 5.55673 5.55673 6.10214 5.82406 6.60536C6.8258 8.49107 5.8601 10.8225 3.81836 11.4475C3.27351 11.6143 3.27351 12.3857 3.81836 12.5525C5.8601 13.1775 6.8258 15.5089 5.82406 17.3946C5.55673 17.8979 6.10214 18.4433 6.60536 18.1759C8.49107 17.1742 10.8225 18.1399 11.4475 20.1816C11.6143 20.7265 12.3857 20.7265 12.5525 20.1816C13.1775 18.1399 15.5089 17.1742 17.3946 18.1759C17.8979 18.4433 18.4433 17.8979 18.1759 17.3946C17.1742 15.5089 18.1399 13.1775 20.1816 12.5525C20.7265 12.3857 20.7265 11.6143 20.1816 11.4475C18.1399 10.8225 17.1742 8.49107 18.1759 6.60536C18.4433 6.10214 17.8979 5.55673 17.3946 5.82406C15.5089 6.8258 13.1775 5.8601 12.5525 3.81836C12.3857 3.27351 11.6143 3.27351 11.4475 3.81836ZM13.9004 3.4057C13.3266 1.53143 10.6734 1.53143 10.0996 3.4057C9.73389 4.60019 8.36993 5.16516 7.26672 4.5791C5.53569 3.65952 3.65952 5.53569 4.5791 7.26672C5.16516 8.36993 4.60019 9.73389 3.4057 10.0996C1.53143 10.6734 1.53143 13.3266 3.4057 13.9004C4.60019 14.2661 5.16516 15.6301 4.5791 16.7333C3.65952 18.4643 5.53569 20.3405 7.26672 19.4209C8.36993 18.8348 9.73389 19.3998 10.0996 20.5943C10.6734 22.4686 13.3266 22.4686 13.9004 20.5943C14.2661 19.3998 15.6301 18.8348 16.7333 19.4209C18.4643 20.3405 20.3405 18.4643 19.4209 16.7333C18.8348 15.6301 19.3998 14.2661 20.5943 13.9004C22.4686 13.3266 22.4686 10.6734 20.5943 10.0996C19.3998 9.73389 18.8348 8.36993 19.4209 7.26672C20.3405 5.53569 18.4643 3.65952 16.7333 4.5791C15.6301 5.16516 14.2661 4.60019 13.9004 3.4057Z" fill="white" stroke="white" stroke-width="0.5"/>
</svg>
