<svg width="42" height="25" viewBox="0 0 42 25" fill="none" xmlns="http://www.w3.org/2000/svg">
<path fill-rule="evenodd" clip-rule="evenodd" d="M7.98688 10.6992C7.88943 11.4335 7.26088 12 6.5 12C5.67157 12 5 11.3284 5 10.5C5 10.1795 5.08858 9.8967 5.14388 9.73868C5.21107 9.54668 5.29942 9.34807 5.3978 9.15239C5.59569 8.75879 5.87267 8.30091 6.21805 7.80943C6.91047 6.82411 7.92392 5.6382 9.24667 4.49157C11.8936 2.19711 15.8541 0 21 0C26.1828 0 30.0325 2.35411 32.5484 4.71972C33.8056 5.90194 34.7472 7.10165 35.3803 8.04989C35.6967 8.52373 35.9432 8.94548 36.1169 9.28264C36.2028 9.44936 36.2788 9.61065 36.3377 9.75708C36.3667 9.82922 36.3988 9.91563 36.4259 10.0083L36.4261 10.0087C36.4433 10.0676 36.5 10.261 36.5 10.5C36.5 11.3284 35.8284 12 35 12C34.2882 12 33.6922 11.5042 33.5385 10.8392C33.5209 10.7994 33.4924 10.7388 33.4501 10.6568C33.335 10.4334 33.1479 10.1091 32.8853 9.71573C32.3604 8.9296 31.5624 7.91056 30.4933 6.90528C28.3563 4.89589 25.206 3 21 3C16.7571 3 13.4676 4.80289 11.2117 6.75843C10.0831 7.7368 9.23192 8.73839 8.67259 9.53432C8.3921 9.93346 8.19642 10.2646 8.07811 10.5C8.03201 10.5917 8.00324 10.6577 7.98688 10.6992ZM7.96881 10.751C7.96854 10.7512 7.96992 10.7459 7.97376 10.7347C7.97099 10.7452 7.96908 10.7509 7.96881 10.751Z" fill="#B41024"/>
<path d="M3 13.5C3 12.9477 3.44772 12.5 4 12.5H5C5.55228 12.5 6 12.9477 6 13.5V23.5C6 24.0523 5.55228 24.5 5 24.5H4C3.44772 24.5 3 24.0523 3 23.5V13.5Z" fill="#B41024"/>
<path d="M0 15.5C0 14.9477 0.447715 14.5 1 14.5H2V22.5H1C0.447715 22.5 0 22.0523 0 21.5V15.5Z" fill="#B41024"/>
<path d="M40 14.5H41C41.5523 14.5 42 14.9477 42 15.5V21.5C42 22.0523 41.5523 22.5 41 22.5H40V14.5Z" fill="#B41024"/>
<path d="M36 13.5C36 12.9477 36.4477 12.5 37 12.5H38C38.5523 12.5 39 12.9477 39 13.5V23.5C39 24.0523 38.5523 24.5 38 24.5H37C36.4477 24.5 36 24.0523 36 23.5V13.5Z" fill="#B41024"/>
</svg>
