<svg width="24" height="24" viewBox="0 0 24 24" fill="none" xmlns="http://www.w3.org/2000/svg">
<g clip-path="url(#clip0_573_6832)">
<path d="M19.6 10.875C19.0477 10.875 18.6 11.3227 18.6 11.875V12.125C18.6 12.6773 19.0477 13.125 19.6 13.125H22C22.5523 13.125 23 12.6773 23 12.125V11.875C23 11.3227 22.5523 10.875 22 10.875H19.6ZM16.9841 17.5141C16.6616 17.9568 16.7512 18.5769 17.1868 18.9089C17.8089 19.383 18.4809 19.8981 19.1124 20.3819C19.5562 20.7218 20.1917 20.6311 20.5216 20.1799C20.5672 20.1175 20.6128 20.0551 20.6584 19.9927C20.9805 19.5522 20.8925 18.9343 20.4594 18.6024C19.8297 18.1197 19.1583 17.6041 18.5353 17.1257C18.0887 16.7829 17.4477 16.8767 17.1166 17.3321C17.0724 17.3928 17.0282 17.4535 16.9841 17.5141ZM20.4666 5.39662C20.8972 5.06556 20.9828 4.45086 20.6622 4.0124C20.6153 3.94831 20.5685 3.8842 20.5216 3.8201C20.1917 3.36891 19.5561 3.27819 19.1125 3.61821C18.4782 4.10444 17.803 4.62305 17.1786 5.10246C16.7462 5.43438 16.6589 6.05146 16.9806 6.49144C17.0262 6.55381 17.0718 6.61619 17.1174 6.67856C17.4477 7.13027 18.0843 7.22069 18.5288 6.88075C19.156 6.40105 19.8326 5.88407 20.4666 5.39662ZM3.2 8.625C1.99 8.625 1 9.6375 1 10.875V13.125C1 14.3625 1.99 15.375 3.2 15.375H4.3V19.375C4.3 19.6511 4.52386 19.875 4.8 19.875H6C6.27614 19.875 6.5 19.6511 6.5 19.375V15.375H7.45882C7.55114 15.375 7.64165 15.4006 7.72033 15.4488L12.3385 18.2827C12.6716 18.4871 13.1 18.2474 13.1 17.8565V6.14345C13.1 5.75257 12.6716 5.51285 12.3385 5.71729L7.72033 8.55116C7.64165 8.59944 7.55114 8.625 7.45882 8.625H3.2ZM15.85 12C15.85 10.5862 15.2804 9.30296 14.3638 8.38758C14.3024 8.32619 14.2 8.37084 14.2 8.45772V15.5329C14.2 15.6195 14.3018 15.6642 14.3634 15.6034C15.2802 14.6975 15.85 13.414 15.85 12Z" fill="white"/>
</g>
<defs>
<clipPath id="clip0_573_6832">
<rect width="24" height="24" fill="white"/>
</clipPath>
</defs>
</svg>
